<svg width="613" height="345" viewBox="0 0 613 345" fill="none" xmlns="http://www.w3.org/2000/svg">
<g clip-path="url(#clip0_513_1546)">
<path d="M383.764 321.617C392.735 317.368 535.641 319.381 512.909 215.242C490.177 111.103 344.972 123.497 309.597 51.1111C274.222 -21.2431 179.175 9.775 125.442 63.5055C70.8462 118.131 17.975 365.381 331.978 253.926C454.163 210.546 377.729 317.815 377.729 317.815" fill="#FFE3C2"/>
<path d="M302.637 18.5277C285.524 15.6847 268.571 24.5652 261.259 40.3138C259.12 44.9138 257.268 50.2805 255.896 56.5097C248.776 88.9652 244.849 111.103 215.188 133.272C185.528 155.442 250.468 224.186 283.64 195.724C316.812 167.261 372.94 203.039 385.615 181.987C398.258 160.936 375.399 138 386.413 120.59C397.428 103.181 407.805 39.1 377.761 17.7291C347.686 -3.64171 309.82 -8.36949 302.637 18.5277Z" fill="#5E1212"/>
<path d="M293.793 153.046C293.793 153.046 221.893 146.529 236.133 317.368H392.735C392.735 317.368 407.549 156.592 335.043 153.046H293.793Z" fill="#F12828"/>
<path d="M298.614 103.404C298.614 103.404 293.091 157.806 293.857 168.89C294.623 179.975 328.019 189.463 334.181 173.65C337.916 164.067 328.019 103.436 328.019 103.436H298.614V103.404Z" fill="#FD8B66"/>
<path d="M361.223 35.9692C361.223 35.9692 401.547 129.023 340.63 137.585C324.89 139.789 302.158 122.379 298.614 109.729C295.485 98.6442 290.185 107.141 286.131 97.6859C280.607 84.7803 284.406 47.597 296.251 71.5234C304.968 89.1248 323.134 38.8123 340.534 46.7345C357.935 54.6567 361.223 35.9692 361.223 35.9692V35.9692Z" fill="#FD8B66"/>
<path d="M269.177 341.646L211.996 160.936C211.996 160.936 166.181 182.019 138.659 199.876C138.659 199.876 155.485 246.068 167.968 271.368C180.452 296.668 186.901 304.846 207.622 315.451C228.375 326.057 269.177 341.646 269.177 341.646V341.646Z" fill="#0E538C"/>
<path d="M269.177 341.646L211.996 160.936C211.996 160.936 261.579 151.8 294.368 150.554C294.368 150.554 307.17 198.024 311.513 225.911C315.855 253.767 315.28 264.181 304.425 284.817C293.601 305.389 269.177 341.646 269.177 341.646Z" fill="#0E538C"/>
<path d="M146.641 202.56C151.302 215.114 164.041 248.592 173.843 268.461C185.624 292.356 191.211 299.671 210.623 309.638C226.618 317.815 255.257 329.219 266.655 333.66L213.975 167.197C208.324 169.849 171.672 187.067 146.641 202.56V202.56Z" fill="#F9F3ED"/>
<path d="M298.646 281.75C308.799 262.423 309.15 253.223 305.031 226.901C301.647 205.019 292.771 170.296 289.387 157.326C259.982 159.083 220.105 166.079 213.975 167.197L266.655 333.66C273.424 323.469 290.281 297.658 298.646 281.75V281.75Z" fill="#F9F3ED"/>
<path d="M151.43 204.221C156.954 218.883 168.352 248.528 177.355 266.736C188.657 289.64 193.606 296.508 212.411 306.156C227.002 313.631 252.288 323.821 265.123 328.868L215.189 170.967C209.442 173.65 175.695 189.558 151.43 204.221V204.221Z" fill="#0E538C"/>
<path d="M295.198 279.929C305.031 261.21 305.127 252.776 301.2 227.508C298.071 207.447 290.377 176.621 286.45 161.479C258.162 163.46 221.446 169.88 215.189 170.998L265.154 328.868C272.721 317.336 287.567 294.432 295.198 279.929Z" fill="#0E538C"/>
<path d="M336.384 332.893L436.411 343.85C439.508 344.201 442.286 341.965 442.605 338.867L461.634 165.025C461.985 161.926 459.75 159.147 456.653 158.828L351.038 147.232L331.371 326.664C331.052 329.763 333.287 332.542 336.384 332.893V332.893Z" fill="#D3D3D3"/>
<path d="M454.546 158.604L450.81 158.189L351.07 147.264L347.335 146.849C343.057 146.37 339.225 149.468 338.746 153.749L320.165 323.31C319.686 327.59 322.783 331.424 327.061 331.903L422.81 342.413C427.089 342.892 430.92 339.793 431.399 335.513L439.891 258.015L443.627 258.431C447.905 258.91 451.736 255.811 452.215 251.531L461.442 167.197C461.889 162.885 458.824 159.051 454.546 158.604V158.604Z" fill="#F7F7F7"/>
<path d="M283.129 253.926V225.528C283.129 216.456 291.494 209.683 298.263 209.683H314.546C325.944 209.683 332.01 216.424 332.01 225.528V253.926H345.962V225.528C345.962 208.757 333.638 195.724 314.546 195.724H298.263C283.832 195.724 269.177 208.757 269.177 225.528V253.926H283.129Z" fill="#CCE9FF"/>
<path d="M352.922 326.568C352.922 334.267 348.261 340.081 340.598 340.081H276.84C269.145 340.081 262.185 334.267 262.185 326.568V258.111C262.185 250.413 269.177 249.263 276.84 249.263H340.598C348.293 249.263 352.922 250.413 352.922 258.111V326.568V326.568Z" fill="#888888"/>
<path d="M320.101 284.913C320.101 278.396 314.993 273.029 308.48 273.029C301.966 273.029 297.082 278.396 297.082 284.913C297.082 289.577 299.412 293.282 304.074 295.39V317.272C304.074 320.307 305.702 322.639 308.735 322.639C311.768 322.639 313.396 320.307 313.396 317.272V295.39C318.026 293.282 320.101 289.545 320.101 284.913Z" fill="black"/>
<path d="M246.924 315.356L265.633 310.5C265.633 310.5 267.9 301.588 272.178 298.202C276.457 294.816 281.565 292.26 283.864 292.547C286.13 292.835 281.31 299.096 279.011 301.939C276.712 304.782 280.16 305.645 289.259 299.384C298.359 293.122 306.053 291.11 308.32 303.92C310.587 316.761 297.497 322.735 281.565 322.735C265.633 322.735 253.118 331.711 253.118 331.711C253.118 331.711 229.364 329.603 246.924 315.356V315.356Z" fill="#FD8B66"/>
<path d="M168 271.368C168 271.368 161.008 271.751 154.687 284.402C148.365 297.052 156.443 357.586 266.687 333.66L259.439 310.724C259.407 310.724 174.29 284.977 168 271.368Z" fill="#F12828"/>
<path d="M371.28 315.356L352.571 310.5C352.571 310.5 350.304 301.588 346.026 298.202C341.748 294.816 336.639 292.26 334.34 292.547C332.074 292.835 336.895 299.096 339.193 301.939C341.492 304.782 338.044 305.645 328.945 299.384C319.846 293.122 312.151 291.11 309.884 303.92C307.617 316.761 320.708 322.735 336.639 322.735C352.571 322.735 365.086 331.711 365.086 331.711C365.086 331.711 388.84 329.603 371.28 315.356V315.356Z" fill="#FD8B66"/>
<path d="M450.044 271.368C450.044 271.368 457.036 271.751 463.358 284.402C469.679 297.052 461.602 357.586 351.358 333.66L358.605 310.724C358.637 310.724 443.723 284.977 450.044 271.368Z" fill="#F12828"/>
<path d="M366.634 72.367C366.348 72.3674 366.07 72.2757 365.838 72.1051C360.728 68.361 353.616 72.1605 353.545 72.2011C353.388 72.2875 353.215 72.3417 353.037 72.3604C352.859 72.3791 352.679 72.362 352.507 72.3101C352.335 72.2582 352.175 72.1725 352.036 72.0579C351.897 71.9433 351.782 71.8021 351.697 71.6422C351.612 71.4823 351.558 71.307 351.54 71.1262C351.521 70.9454 351.538 70.7628 351.589 70.5886C351.641 70.4144 351.725 70.2521 351.838 70.1111C351.951 69.97 352.09 69.8529 352.248 69.7664C352.602 69.5746 360.928 65.0908 367.434 69.8623C367.668 70.0336 367.842 70.2758 367.932 70.5539C368.021 70.832 368.022 71.1318 367.933 71.4101C367.844 71.6885 367.67 71.931 367.437 72.103C367.204 72.2749 366.923 72.3674 366.634 72.367ZM332.103 72.367C331.816 72.3678 331.537 72.276 331.305 72.1051C326.193 68.361 319.083 72.1605 319.01 72.2011C318.692 72.3754 318.319 72.4144 317.972 72.3094C317.626 72.2045 317.335 71.9641 317.163 71.6413C316.991 71.3184 316.953 70.9395 317.056 70.5879C317.159 70.2363 317.396 69.9408 317.714 69.7664C318.067 69.5746 326.395 65.0945 332.901 69.8623C333.135 70.0336 333.309 70.2758 333.398 70.5539C333.488 70.832 333.488 71.1318 333.4 71.4101C333.311 71.6885 333.137 71.931 332.904 72.103C332.671 72.2749 332.39 72.3674 332.101 72.367H332.103ZM325.271 96.3444C330.535 96.3444 330.542 88.0445 325.271 88.0445C320.01 88.0445 320.001 96.3444 325.271 96.3444ZM359.948 97.6724C365.211 97.6724 365.219 89.3725 359.948 89.3725C354.687 89.3725 354.677 97.6724 359.948 97.6724Z" fill="#230000"/>
<path d="M345 76C345.796 76 346.559 75.6839 347.121 75.1213C347.684 74.5587 348 73.7956 348 73C348 72.2044 347.684 71.4413 347.121 70.8787C346.559 70.3161 345.796 70 345 70C344.204 70 343.441 70.3161 342.879 70.8787C342.316 71.4413 342 72.2044 342 73C342 73.7956 342.316 74.5587 342.879 75.1213C343.441 75.6839 344.204 76 345 76Z" fill="#E8233B"/>
<path d="M343 91C344.231 92.4696 345.302 94.0478 346.197 95.7117C347.112 97.3488 347.904 99.0417 348.568 100.778C349.28 102.55 349.753 104.396 349.978 106.275C349.999 106.537 350.005 106.8 349.996 107.063C349.994 107.211 349.98 107.359 349.956 107.505C349.931 107.695 349.875 107.879 349.788 108.053C349.671 108.302 349.473 108.511 349.22 108.651C349.078 108.719 348.93 108.778 348.779 108.828C348.488 108.924 348.183 108.981 347.874 108.999C346.773 109.024 345.701 108.67 344.868 108.005C345.788 108.176 346.74 108.121 347.63 107.846C347.808 107.782 347.976 107.697 348.129 107.592C348.2 107.542 348.267 107.488 348.329 107.43C348.401 107.388 348.319 107.401 348.267 107.447C348.246 107.466 348.229 107.489 348.216 107.514L348.197 107.502C348.161 107.427 348.109 106.935 347.979 106.57C347.474 104.953 346.742 103.26 346.12 101.567C345.468 99.8594 344.869 98.1355 344.323 96.3969C343.743 94.6292 343.301 92.8257 343 91V91Z" fill="#D04719"/>
<path d="M336.605 117.079C338.966 117.462 341.352 117.679 343.744 117.728C344.857 117.732 345.968 117.641 347.065 117.456C348.228 117.328 349.367 116.98 350.772 116.764C350.101 117.993 349.083 118.998 347.845 119.653C346.593 120.346 345.184 120.704 343.755 120.692C342.344 120.703 340.951 120.388 339.684 119.772C338.423 119.184 337.355 118.25 336.605 117.079V117.079Z" fill="#E8233B"/>
<path d="M170.793 1.06645C170.329 1.09712 169.867 1.13496 169.403 1.16706C168.968 1.19812 168.534 1.24179 168.101 1.29803C168.224 1.28247 168.591 1.23654 168.019 1.30793C166.828 1.45234 165.638 1.61515 164.452 1.79633C163.987 1.86866 163.522 1.94434 163.058 2.02338L162.502 2.12065L162.224 2.17038C161.84 2.24143 161.853 2.23786 162.262 2.15967C161.813 2.22533 161.358 2.23357 160.907 2.18421C160.152 2.21622 159.404 2.32963 158.675 2.52235C154.908 3.42696 151.179 4.56149 147.508 5.78664C145.447 6.4749 143.425 7.36435 141.423 8.2007C139.6 8.96342 137.769 9.74124 136.006 10.6319C132.642 12.3299 129.348 14.1541 126.125 16.1047C114.428 23.1771 103.656 31.6282 94.0506 41.2695C84.4641 50.9182 76.0598 61.6344 69.0088 73.1997C65.5543 78.8471 62.4364 84.6864 59.6707 90.6882C53.8552 102.969 49.6962 115.942 47.2991 129.279C46.6096 133.056 46.0568 136.861 45.6006 140.672C45.4071 142.292 45.4258 143.899 45.356 145.525C45.2843 147.187 45.2405 148.85 45.2244 150.514C45.1138 151.802 45.2039 153.1 45.4918 154.363C45.9978 155.842 46.7959 157.209 47.8403 158.386L46.4301 155.999C46.6186 156.662 46.8504 157.312 47.1241 157.946C47.8322 159.815 49.4904 161.463 51.6884 161.371C52.5242 161.339 53.3419 161.123 54.0822 160.741C55.1301 160.107 55.9065 159.12 56.2658 157.964C56.5591 157.33 56.8188 156.681 57.0439 156.02L55.6234 158.402C56.1781 157.8 56.671 157.146 57.0949 156.449C57.8633 155.242 58.312 153.865 58.4002 152.444C58.4972 151.533 58.57 150.619 58.6633 149.708C58.8551 147.846 59.1412 145.993 59.3308 144.131L59.0791 145.944C59.8455 143.234 59.9217 140.301 60.3055 137.514L60.0457 139.378C61.762 127.512 64.7128 115.85 68.8517 104.575C70.0113 101.363 71.269 98.1869 72.625 95.0478L71.9289 96.6582C76.484 86.1198 82.1034 76.0563 88.703 66.6184C90.578 63.9406 92.5302 61.3173 94.5596 58.7485L93.5862 59.9812C100.41 51.31 108.079 43.3127 116.483 36.103C118.857 34.0784 121.29 32.1238 123.782 30.2393L122.684 31.0681C128.167 26.915 133.927 23.1259 139.924 19.7261C143.185 17.8845 146.446 16.0459 149.82 14.4078C151.497 13.5924 153.136 12.7309 154.854 11.9938C155.235 11.8301 155.617 11.6412 156.011 11.5063C154.875 11.8961 156.324 11.3826 156.596 11.2754C157.557 10.8948 158.524 10.529 159.497 10.178C160.702 9.82224 161.87 9.3531 162.984 8.77721C163.139 8.68558 163.298 8.59973 163.456 8.51242L163.929 8.24975C163.608 8.36306 163.561 8.38167 163.787 8.30551C164.282 8.16141 164.768 7.98785 165.26 7.83585C167.314 7.19929 169.395 6.64108 171.477 6.10299C172.081 5.93356 172.602 5.55665 172.946 5.04109C173.29 4.52554 173.434 3.90572 173.351 3.29481C173.268 2.6839 172.964 2.12265 172.494 1.71354C172.025 1.30443 171.421 1.07476 170.793 1.06645ZM70.1951 236.735C69.0704 234.792 68.0128 232.815 67.0223 230.803C66.9035 230.56 66.7848 230.318 66.6689 230.074C66.6427 230.019 66.2726 229.207 66.5297 229.794C66.2457 229.145 65.9997 228.48 65.7033 227.836C65.2152 226.773 64.6979 225.724 64.2245 224.654C64.1145 224.408 64.0074 224.16 63.8982 223.912C63.5311 223.077 64.1676 224.568 63.8225 223.733C63.6186 223.241 63.4125 222.748 63.2138 222.254C62.8156 221.262 62.4035 220.274 62.0112 219.278C61.192 217.2 60.4449 215.097 59.7698 212.967C58.4468 208.784 57.3735 204.529 56.5551 200.223C56.3538 199.168 56.1697 198.11 56.0026 197.048C55.9188 196.518 55.843 195.986 55.765 195.455C55.625 194.497 55.891 196.463 55.7723 195.505C55.7276 195.152 55.6822 194.797 55.6398 194.443C55.388 192.316 55.2067 190.183 55.0959 188.044C54.9805 185.812 54.8108 183.582 54.7297 181.348C54.6909 180.277 54.6702 179.205 54.6675 178.133C54.7283 177.331 54.6822 176.525 54.5304 175.735C54.2035 174.551 53.4303 173.534 52.3676 172.889C50.4295 171.792 48.3107 172.85 47.2471 174.568C46.3846 175.961 46.4533 177.85 46.3542 179.456C46.1801 181.684 46.1235 183.919 46.1848 186.153C46.4385 190.816 47.041 195.454 47.9873 200.03C49.8475 209.389 53.1318 218.419 57.7298 226.817C60.3151 231.267 63.3028 235.48 66.6566 239.404C67.0418 239.783 67.5548 240.01 68.0989 240.043C68.6429 240.076 69.1804 239.912 69.6099 239.582C70.0403 239.256 70.3364 238.789 70.4439 238.265C70.5514 237.742 70.4631 237.199 70.1951 236.735ZM525.522 85.6339C525.512 85.2347 525.531 84.8353 525.578 84.4387C525.646 83.6964 525.589 82.948 525.408 82.2239C525.201 81.4119 524.947 80.609 524.7 79.8084C524.217 78.2415 523.733 76.6855 523.109 75.1679C521.709 71.7619 520.181 68.4102 518.442 65.1564C515.04 58.942 510.946 53.117 506.236 47.7881C497.185 37.4056 486.134 28.8806 473.717 22.7025C469.971 20.7994 466.08 19.1838 462.08 17.8701C460.309 17.2889 458.505 16.8073 456.678 16.4277C455.72 16.2361 454.76 16.0503 453.795 15.8982C452.514 15.6395 451.19 15.6774 449.927 16.0089C449.181 16.218 448.475 16.5471 447.838 16.983C446.829 17.5927 446.098 18.5597 445.795 19.684C445.492 20.8083 445.641 22.0039 446.212 23.0233C446.6 23.7818 447.122 24.4663 447.755 25.0448C448.213 25.4642 448.706 25.8441 449.23 26.1805C449.882 26.5093 450.561 26.7839 451.26 27.0013C452.358 27.413 453.449 27.8442 454.532 28.2951L453.065 27.6837C455.21 28.5795 457.391 29.3826 459.535 30.2754L458.007 29.6388C459.809 30.3938 461.602 31.1667 463.405 31.9174L461.853 31.2706C469.883 34.6467 477.442 39.0134 484.347 44.2653L483.055 43.2822C490.399 48.8618 496.995 55.331 502.685 62.5359L501.737 61.3265C504.237 64.5124 506.583 67.8109 508.77 71.2114C510.945 74.6061 512.818 78.1567 514.701 81.7081C515.232 82.7185 515.741 83.7402 516.226 84.7725C516.551 85.5607 516.994 86.2967 517.54 86.9559C517.724 87.1631 517.93 87.356 518.119 87.5604C518.353 87.8137 518.804 88.5257 518.182 87.5699C518.628 88.2964 519.302 88.8624 520.102 89.184C520.902 89.5055 521.786 89.5655 522.623 89.3552C524.189 88.8613 525.653 87.363 525.522 85.6339Z" fill="#FFE3C2"/>
</g>
<defs>
<clipPath id="clip0_513_1546">
<rect width="613" height="345" fill="white"/>
</clipPath>
</defs>
</svg>
