<svg width="900" height="600" viewBox="0 0 900 600" fill="none" xmlns="http://www.w3.org/2000/svg">
<path d="M285.38 469.426C245.279 461.38 207.134 447.751 176.89 417.803C152.418 393.573 136.548 361.101 131.123 327.093C124.152 283.391 135.157 237.445 159.785 200.838C181.312 168.841 197.352 116.859 231.642 100.532C274.089 80.3201 331.248 87.5981 375.554 71.4261C456.299 41.9541 442.956 34.1651 528.082 44.5311C577.329 50.5291 626.712 65.2511 665.743 96.9841C676.929 106.088 687.085 116.388 696.032 127.7C759.629 208.047 760.837 336.301 692.698 414.401C673.888 435.961 649.895 452.855 623.848 464.536C565.9 490.524 499.935 491.926 437.556 489.228C366.882 486.17 395.317 485.452 325.143 475.905C311.818 474.092 298.494 472.058 285.38 469.426V469.426Z" fill="#FFE3C2"/>
<path d="M607.352 504.159C607.986 504.115 608.618 504.061 609.252 504.015C609.847 503.97 610.44 503.908 611.031 503.829C610.863 503.851 610.361 503.916 611.143 503.815C612.771 503.61 614.396 503.38 616.017 503.125C616.653 503.023 617.288 502.916 617.922 502.805L618.682 502.668L619.062 502.598C619.585 502.498 619.568 502.503 619.009 502.613C619.622 502.52 620.245 502.507 620.862 502.575C621.893 502.528 622.915 502.368 623.911 502.098C629.057 500.828 634.151 499.238 639.165 497.522C641.981 496.558 644.742 495.314 647.475 494.144C649.965 493.077 652.465 491.989 654.873 490.744C659.466 488.371 663.963 485.821 668.363 483.097C684.331 473.218 699.03 461.422 712.133 447.972C725.209 434.512 736.667 419.569 746.272 403.448C750.978 395.576 755.224 387.437 758.987 379.074C766.902 361.96 772.55 343.888 775.79 325.313C776.722 320.053 777.467 314.754 778.08 309.447C778.34 307.191 778.31 304.953 778.401 302.689C778.494 300.375 778.55 298.06 778.567 295.744C778.715 293.949 778.588 292.142 778.191 290.386C777.495 288.327 776.401 286.426 774.97 284.791L776.904 288.111C776.645 287.188 776.326 286.283 775.95 285.402C774.977 282.802 772.706 280.512 769.702 280.646C768.56 280.694 767.443 280.996 766.432 281.53C765.001 282.415 763.943 283.792 763.455 285.402C763.056 286.286 762.703 287.19 762.397 288.111L764.332 284.791C763.575 285.63 762.904 286.542 762.326 287.514C761.279 289.197 760.67 291.115 760.553 293.094C760.423 294.362 760.326 295.634 760.201 296.903C759.944 299.496 759.558 302.077 759.304 304.669L759.643 302.144C758.603 305.92 758.507 310.003 757.99 313.884L758.34 311.288C756.027 327.813 752.026 344.057 746.4 359.766C744.824 364.242 743.114 368.667 741.269 373.041L742.216 370.797C736.019 385.481 728.366 399.508 719.372 412.666C716.817 416.399 714.156 420.057 711.389 423.639L712.716 421.92C703.414 434.011 692.954 445.167 681.486 455.228C678.247 458.053 674.928 460.781 671.527 463.412L673.025 462.255C665.542 468.052 657.68 473.344 649.492 478.094C645.04 480.667 640.589 483.236 635.982 485.526C633.692 486.666 631.454 487.87 629.108 488.901C628.587 489.13 628.066 489.394 627.528 489.583C629.079 489.037 627.1 489.756 626.729 489.906C625.416 490.439 624.096 490.951 622.767 491.442C621.12 491.941 619.526 492.597 618.005 493.402C617.793 493.53 617.575 493.65 617.36 493.772L616.714 494.139C617.152 493.98 617.217 493.954 616.908 494.061C616.232 494.263 615.568 494.506 614.896 494.719C612.09 495.611 609.248 496.394 606.403 497.149C605.579 497.386 604.867 497.913 604.398 498.631C603.93 499.35 603.735 500.213 603.85 501.064C603.965 501.914 604.382 502.694 605.025 503.263C605.668 503.831 606.494 504.149 607.352 504.159V504.159ZM744.199 175.776C745.742 178.477 747.193 181.227 748.552 184.026C748.715 184.363 748.878 184.7 749.037 185.039C749.073 185.116 749.581 186.245 749.228 185.429C749.618 186.332 749.956 187.257 750.363 188.153C751.033 189.631 751.743 191.09 752.393 192.578C752.544 192.921 752.691 193.266 752.841 193.61C753.345 194.772 752.471 192.698 752.945 193.859C753.225 194.544 753.508 195.229 753.781 195.916C754.328 197.297 754.894 198.671 755.433 200.056C756.558 202.947 757.585 205.873 758.514 208.836C760.334 214.656 761.813 220.577 762.943 226.57C763.221 228.038 763.476 229.511 763.707 230.988C763.823 231.726 763.928 232.466 764.036 233.206C764.23 234.539 763.861 231.802 764.026 233.136C764.088 233.628 764.151 234.121 764.21 234.614C764.56 237.574 764.814 240.543 764.971 243.522C765.135 246.628 765.373 249.732 765.49 252.842C765.546 254.333 765.577 255.825 765.584 257.318C765.503 258.435 765.568 259.557 765.778 260.657C766.228 262.304 767.288 263.718 768.742 264.613C771.394 266.135 774.287 264.656 775.736 262.261C776.911 260.319 776.812 257.689 776.943 255.453C777.175 252.351 777.246 249.238 777.156 246.129C776.796 239.638 775.96 233.182 774.654 226.814C772.086 213.79 767.572 201.228 761.264 189.548C757.718 183.36 753.623 177.504 749.028 172.05C748.501 171.524 747.799 171.209 747.055 171.165C746.311 171.12 745.577 171.35 744.991 171.81C744.404 172.265 744 172.917 743.855 173.646C743.709 174.374 743.831 175.131 744.199 175.777V175.776ZM122.275 387.421C122.29 387.977 122.265 388.533 122.201 389.085C122.11 390.119 122.191 391.16 122.439 392.168C122.725 393.298 123.074 394.415 123.414 395.529C124.079 397.709 124.744 399.874 125.601 401.985C127.525 406.723 129.622 411.385 132.008 415.91C136.676 424.552 142.287 432.65 148.739 440.056C161.139 454.485 176.267 466.323 193.255 474.889C198.381 477.528 203.703 479.766 209.174 481.584C211.597 482.388 214.063 483.053 216.561 483.577C217.871 483.841 219.184 484.097 220.504 484.306C222.255 484.662 224.065 484.606 225.79 484.141C226.81 483.848 227.774 483.387 228.643 482.779C230.02 481.927 231.017 480.579 231.428 479.013C231.838 477.447 231.631 475.783 230.849 474.365C230.317 473.31 229.6 472.359 228.734 471.555C228.107 470.972 227.431 470.445 226.714 469.978C225.822 469.522 224.894 469.142 223.938 468.841C222.435 468.271 220.943 467.674 219.462 467.049L221.469 467.896C218.535 466.655 215.552 465.543 212.618 464.306L214.708 465.188C212.244 464.142 209.791 463.071 207.324 462.031L209.447 462.927C198.463 458.249 188.12 452.191 178.667 444.899L180.435 446.264C170.382 438.517 161.349 429.529 153.552 419.514L154.851 421.195C151.426 416.767 148.209 412.181 145.211 407.453C142.229 402.733 139.659 397.795 137.076 392.856C136.347 391.451 135.649 390.03 134.982 388.594C134.537 387.497 133.929 386.474 133.18 385.558C132.928 385.27 132.646 385.002 132.388 384.718C132.067 384.366 131.448 383.376 132.302 384.705C131.689 383.695 130.768 382.909 129.673 382.463C128.579 382.018 127.37 381.937 126.226 382.232C124.087 382.924 122.091 385.014 122.276 387.421H122.275Z" fill="#FFE3C2"/>
<path d="M495.667 105.607H539.662V109.607H495.667V105.607ZM495.667 123.981H539.662V127.981H495.667V123.981ZM495.667 142.355H539.662V146.355H495.667V142.355ZM495.667 160.73H539.662V164.73H495.667V160.73ZM495.667 179.104H539.662V183.104H495.667V179.104ZM495.667 197.479H539.662V201.479H495.667V197.479ZM495.667 215.853H539.662V219.853H495.667V215.853Z" fill="#FFC68D"/>
<path d="M513.077 107.607H517.077V125.982H513.077V107.607ZM527.828 125.981H531.828V144.355H527.828V125.981ZM508.16 144.355H512.16V162.73H508.16V144.355ZM519.029 162.73H523.029V181.104H519.029V162.73ZM498.066 181.104H502.066V199.479H498.066V181.104ZM527.828 181.104H531.828V199.479H527.828V181.104ZM508.16 199.479H512.16V217.853H508.16V199.479ZM645.741 223.983H689.736V227.983H645.741V223.983ZM645.741 242.358H689.736V246.358H645.741V242.358ZM645.741 260.732H689.736V264.732H645.741V260.732ZM645.741 279.106H689.736V283.106H645.741V279.106ZM645.741 297.481H689.736V301.481H645.741V297.481ZM645.741 315.855H689.736V319.855H645.741V315.855ZM645.741 334.229H689.736V338.229H645.741V334.229Z" fill="#FFC68D"/>
<path d="M663.15 225.983H667.15V244.358H663.15V225.983ZM677.902 244.358H681.902V262.733H677.902V244.358ZM658.233 262.732H662.233V281.106H658.233V262.732ZM669.103 281.106H673.103V299.481H669.103V281.106ZM648.141 299.481H652.141V317.855H648.141V299.481ZM677.902 299.481H681.902V317.855H677.902V299.481ZM658.233 317.855H662.233V336.23H658.233V317.855ZM209.391 267.22H253.386V271.22H209.391V267.22ZM209.391 285.595H253.386V289.595H209.391V285.595ZM209.391 303.969H253.386V307.969H209.391V303.969ZM209.391 322.343H253.386V326.343H209.391V322.343ZM209.391 340.717H253.386V344.717H209.391V340.717ZM209.391 359.092H253.386V363.092H209.391V359.092ZM209.391 377.466H253.386V381.466H209.391V377.466Z" fill="#FFC68D"/>
<path d="M226.801 269.22H230.801V287.595H226.801V269.22ZM241.552 287.595H245.552V305.969H241.552V287.595ZM221.883 305.969H225.883V324.344H221.883V305.969ZM232.753 324.343H236.753V342.717H232.753V324.343ZM211.791 342.717H215.791V361.092H211.791V342.717ZM241.552 342.717H245.552V361.092H241.552V342.717ZM221.883 361.092H225.883V379.467H221.883V361.092Z" fill="#FFC68D"/>
<path d="M466.675 526.2L466.463 540.606C466.463 540.606 491.159 543.178 497.333 559.128H438.524V526.2H466.675ZM409.779 524.8L406.087 538.727C406.087 538.727 429.427 547.199 431.559 564.168L374.497 549.939L382.464 517.989L409.779 524.8Z" fill="#FD8B66"/>
<path d="M392.536 324.343C392.536 324.343 382.998 363.826 361.776 387.413C340.554 411 328.314 406.709 332.634 414.974C336.954 423.239 348.709 421.8 351.11 447C353.511 472.2 371.99 462.12 371.99 462.12L384.013 436.779L392.536 324.343Z" fill="#FF9900"/>
<path d="M488.631 346.272C489.351 305.952 475.131 285.612 475.131 285.612H457.03L457.016 285.629C444.281 321.854 423.546 356.12 389.993 366.432C389.993 366.432 386.393 399.552 386.665 409.908C386.938 420.265 371.993 528.432 371.993 528.432C371.993 528.432 405.113 538.512 433.314 532.032C461.516 525.552 488.659 528.432 488.659 528.432C488.659 528.432 487.913 386.592 488.632 346.272H488.631Z" fill="#F12828"/>
<path d="M456.499 285.6L456.48 467.991L453.499 285.624L456.499 285.6ZM448.106 302.937L445.158 391.152L445.106 302.888L448.106 302.937ZM439.981 318.934L424.563 441.959L437 318.597L439.981 318.934V318.934Z" fill="#AF2500"/>
<path d="M424.397 171.727L424.421 171.457L424.397 171.727ZM488.631 202.752C488.631 202.752 479.991 184.512 476.631 182.352C473.271 180.192 455.271 174.432 455.271 174.432C455.271 174.432 458.631 205.152 452.091 203.712C445.551 202.272 423.111 176.352 423.111 176.352C420.471 176.592 402.471 176.832 394.791 185.232C387.111 193.632 384.951 208.512 384.951 208.512L383.511 237.552L412.671 235.752C412.671 235.752 404.031 271.972 406.191 275.102C408.351 278.232 480.711 275.102 480.711 275.102L484.311 242.502L503.391 232.152L488.631 202.752ZM424.331 172.426L424.311 172.623L424.331 172.426ZM424.485 170.576L424.505 170.247C424.499 170.357 424.493 170.468 424.485 170.577V170.576ZM424.548 169.5L424.563 169.208L424.548 169.5ZM423.729 175.603C423.739 175.575 423.751 175.551 423.761 175.522C423.751 175.551 423.74 175.575 423.729 175.602V175.603ZM423.551 175.987C423.561 175.97 423.571 175.949 423.58 175.931C423.57 175.949 423.561 175.97 423.551 175.987Z" fill="#F12828"/>
<path d="M423.366 176.22C423.352 176.233 423.337 176.245 423.322 176.256C423.337 176.245 423.352 176.234 423.366 176.221V176.22ZM424.059 174.359L424.074 174.284L424.059 174.359ZM423.907 175.041L423.94 174.906C423.93 174.952 423.918 174.998 423.907 175.041Z" fill="#E6560F"/>
<path d="M457.192 165.072C460.312 164.832 468.712 159.312 468.712 152.352C468.712 145.392 470.872 119.232 468.232 115.872C465.592 112.512 459.472 115.962 457.852 114.522C456.232 113.082 456.052 107.952 452.362 107.232C448.672 106.512 442.799 111.312 438.49 106.752C438.416 109.705 437.635 112.598 436.212 115.187C434.789 117.776 432.766 119.986 430.312 121.632C430.312 121.632 431.992 135.312 425.272 132.672C418.552 130.032 414.952 134.592 415.432 137.712C415.912 140.832 417.592 146.352 424.312 146.352C424.312 146.352 425.752 176.112 423.112 176.352C423.112 176.352 445.552 202.272 452.092 203.712C458.632 205.152 455.272 174.432 455.272 174.432C455.272 174.432 454.072 165.312 457.192 165.072Z" fill="#FD8B66"/>
<path d="M438.49 106.752C438.416 109.706 437.634 112.598 436.211 115.187C434.788 117.776 432.765 119.986 430.311 121.632C430.311 121.632 431.991 135.312 425.271 132.672C418.551 130.032 414.951 134.592 415.431 137.712C415.911 140.832 417.591 146.352 424.311 146.352C424.311 146.352 425.751 176.112 423.111 176.352C420.471 176.592 402.471 176.832 394.791 185.232C387.111 193.632 384.951 208.512 384.951 208.512C384.951 208.512 370.311 197.472 380.391 187.392C390.471 177.312 390.471 177.792 390.471 172.272C390.471 166.752 389.511 161.232 394.791 160.992C400.071 160.752 397.431 154.512 397.431 150.192C397.431 145.872 396.231 141.312 400.791 139.632C400.791 139.632 398.391 128.832 405.831 127.632C413.271 126.432 407.751 117.792 408.951 113.472C410.151 109.152 412.311 102.672 420.951 102.672C420.951 102.672 423.111 94.512 430.071 95.232C430.071 95.232 430.791 83.712 441.591 85.392C452.391 87.072 455.991 95.952 461.271 96.432C466.551 96.912 476.871 96.432 478.071 107.712C479.271 118.992 478.311 120.192 483.111 122.112C487.911 124.032 497.511 128.352 493.671 136.512C489.831 144.672 490.551 146.832 491.271 150.192C491.991 153.552 494.151 160.032 491.031 166.272C487.911 172.512 486.951 174.672 489.591 179.712C492.231 184.752 496.403 192.192 494.557 196.992C494.084 198.346 493.303 199.572 492.274 200.572C491.246 201.572 489.998 202.318 488.631 202.752C488.631 202.752 479.991 184.512 476.631 182.352C473.271 180.192 455.271 174.432 455.271 174.432C455.271 174.432 454.071 165.312 457.191 165.072C460.311 164.832 468.711 159.312 468.711 152.352C468.711 145.392 470.871 119.232 468.231 115.872C465.591 112.512 459.471 115.962 457.851 114.522C456.231 113.082 456.051 107.952 452.361 107.232C448.671 106.512 442.799 111.312 438.491 106.752H438.49Z" fill="#5E1212"/>
<path d="M464.05 121.322C463.893 121.322 463.739 121.273 463.612 121.18C460.8 119.15 456.887 121.21 456.848 121.232C456.761 121.279 456.666 121.308 456.568 121.319C456.47 121.329 456.371 121.319 456.277 121.291C456.182 121.263 456.094 121.217 456.018 121.155C455.941 121.092 455.878 121.016 455.831 120.929C455.784 120.843 455.755 120.747 455.745 120.649C455.734 120.551 455.744 120.452 455.772 120.358C455.8 120.264 455.846 120.176 455.908 120.099C455.971 120.023 456.047 119.959 456.134 119.912C456.329 119.808 460.91 117.377 464.49 119.964C464.618 120.057 464.714 120.188 464.764 120.339C464.813 120.49 464.813 120.652 464.764 120.803C464.715 120.954 464.62 121.086 464.491 121.179C464.363 121.272 464.209 121.322 464.05 121.322V121.322ZM445.05 121.322C444.892 121.323 444.738 121.273 444.611 121.18C441.798 119.15 437.886 121.21 437.846 121.232C437.671 121.327 437.465 121.348 437.275 121.291C437.084 121.234 436.924 121.104 436.829 120.929C436.735 120.754 436.714 120.548 436.771 120.358C436.828 120.167 436.958 120.007 437.133 119.912C437.327 119.808 441.909 117.379 445.489 119.964C445.618 120.057 445.713 120.188 445.763 120.339C445.812 120.49 445.812 120.652 445.763 120.803C445.714 120.954 445.619 121.086 445.49 121.179C445.362 121.272 445.208 121.322 445.049 121.322H445.05ZM441.291 134.322C444.187 134.322 444.191 129.822 441.291 129.822C438.396 129.822 438.391 134.322 441.291 134.322ZM460.371 135.042C463.267 135.042 463.271 130.542 460.371 130.542C457.476 130.542 457.471 135.042 460.371 135.042Z" fill="#230000"/>
<path d="M452.091 122.232C452.489 122.232 452.87 122.074 453.152 121.793C453.433 121.511 453.591 121.13 453.591 120.732C453.591 120.334 453.433 119.953 453.152 119.671C452.87 119.39 452.489 119.232 452.091 119.232C451.693 119.232 451.312 119.39 451.03 119.671C450.749 119.953 450.591 120.334 450.591 120.732C450.591 121.13 450.749 121.511 451.03 121.793C451.312 122.074 451.693 122.232 452.091 122.232Z" fill="#E8233B"/>
<path d="M452.991 127.032C453.94 128.261 454.766 129.581 455.456 130.972C456.161 132.341 456.772 133.757 457.284 135.209C457.833 136.691 458.198 138.235 458.371 139.805C458.387 140.024 458.392 140.244 458.385 140.464C458.383 140.588 458.373 140.712 458.354 140.834C458.335 140.993 458.291 141.147 458.225 141.292C458.135 141.501 457.982 141.675 457.787 141.792C457.677 141.849 457.564 141.899 457.447 141.94C457.222 142.02 456.987 142.068 456.749 142.083C455.9 142.104 455.073 141.808 454.431 141.252C455.14 141.395 455.875 141.349 456.561 141.119C456.698 141.066 456.827 140.994 456.946 140.907C457 140.865 457.052 140.82 457.1 140.771C457.155 140.736 457.092 140.747 457.052 140.785C457.036 140.801 457.023 140.82 457.013 140.841L456.998 140.831C456.97 140.769 456.93 140.357 456.83 140.052C456.441 138.7 455.876 137.284 455.397 135.868C454.894 134.441 454.432 132.999 454.011 131.545C453.564 130.067 453.223 128.559 452.991 127.032V127.032Z" fill="#D04719"/>
<path d="M446.871 142.872C447.837 144.164 448.893 145.386 450.031 146.53C450.569 147.053 451.15 147.529 451.769 147.953C452.393 148.435 453.108 148.799 453.891 149.352C452.991 149.635 452.028 149.647 451.121 149.386C450.19 149.137 449.339 148.651 448.651 147.976C447.962 147.321 447.433 146.516 447.106 145.623C446.769 144.747 446.687 143.793 446.871 142.872V142.872Z" fill="#E8233B"/>
<path d="M436.772 160.392C436.772 160.392 438.574 169.122 455.06 169.909C455.125 168.107 455.427 166.285 456.286 165.489C454.286 165.566 444.764 165.625 436.772 160.392Z" fill="#D04719"/>
<path d="M412.672 235.752H416.631L415.389 207.492L412.672 235.752ZM478.191 203.761L482.238 222.361L480.265 222.683L478.191 203.761Z" fill="#AF2500"/>
<path d="M416.631 235.752H412.431C407.871 244.032 411.951 261.312 400.791 288.285C389.631 315.258 389.991 366.432 389.991 366.432C468.471 342.312 476.871 187.152 476.631 182.352C476.391 177.552 461.991 172.032 455.271 174.432C448.551 176.832 416.438 231.342 416.438 231.342L416.631 235.752Z" fill="#FFBD2D"/>
<path d="M403.798 261.968L402.814 261.803C404.087 248.882 411.731 245.334 412.056 245.19L412.728 244.89L412.949 250.078L412.531 250.162C406.381 251.403 403.823 261.862 403.798 261.968V261.968ZM411.795 246.484C410.369 247.392 407.005 250.048 405.074 255.81C406.527 253.018 408.747 250.119 411.914 249.28L411.795 246.484Z" fill="black"/>
<path d="M586.282 35.832H512.627C511.983 35.832 511.364 36.088 510.909 36.5438C510.453 36.9995 510.197 37.6176 510.197 38.262V95.204C510.197 95.8483 510.453 96.4662 510.909 96.9217C511.365 97.3772 511.983 97.633 512.627 97.633H542.478L547.386 105.597C547.604 105.95 547.908 106.241 548.27 106.444C548.632 106.646 549.04 106.752 549.455 106.752C549.869 106.752 550.277 106.646 550.639 106.444C551.001 106.241 551.305 105.95 551.523 105.597L556.431 97.633H586.282C586.926 97.633 587.545 97.377 588 96.9213C588.456 96.4656 588.712 95.8475 588.712 95.203V38.262C588.712 37.6177 588.456 36.9999 588 36.5444C587.544 36.0889 586.926 35.833 586.282 35.833V35.832ZM613.642 210.186H539.987C539.343 210.186 538.724 210.442 538.269 210.898C537.813 211.353 537.557 211.972 537.557 212.616V269.558C537.557 270.203 537.813 270.821 538.269 271.276C538.724 271.732 539.343 271.988 539.987 271.988H569.838L574.746 279.952C574.964 280.305 575.268 280.596 575.63 280.799C575.992 281.001 576.4 281.107 576.815 281.107C577.229 281.107 577.637 281.001 577.999 280.799C578.361 280.596 578.665 280.305 578.883 279.952L583.791 271.987H613.642C614.286 271.987 614.904 271.731 615.36 271.276C615.816 270.82 616.072 270.202 616.072 269.558V212.616C616.072 211.972 615.816 211.353 615.36 210.898C614.905 210.442 614.287 210.186 613.642 210.186V210.186Z" fill="#78C1D0"/>
<path d="M343.212 39.3208H269.557C268.912 39.3208 268.294 39.5768 267.839 40.0325C267.383 40.4882 267.127 41.1063 267.127 41.7508V98.6928C267.127 99.3373 267.383 99.9554 267.839 100.411C268.294 100.867 268.912 101.123 269.557 101.123H299.408L304.316 109.087C304.534 109.44 304.838 109.731 305.2 109.933C305.562 110.135 305.97 110.242 306.384 110.242C306.799 110.242 307.207 110.135 307.569 109.933C307.931 109.731 308.235 109.44 308.453 109.087L313.361 101.122H343.212C343.856 101.122 344.474 100.866 344.93 100.41C345.386 99.9549 345.642 99.3371 345.642 98.6928V41.7508C345.642 41.4317 345.579 41.1157 345.457 40.8209C345.335 40.5261 345.156 40.2582 344.93 40.0325C344.705 39.8069 344.437 39.6279 344.142 39.5058C343.847 39.3837 343.531 39.3208 343.212 39.3208Z" fill="#78C1D0"/>
<path d="M345.642 107.261C352.822 107.261 358.642 101.441 358.642 94.2612C358.642 87.0815 352.822 81.2612 345.642 81.2612C338.462 81.2612 332.642 87.0815 332.642 94.2612C332.642 101.441 338.462 107.261 345.642 107.261Z" fill="#E8233B"/>
<path d="M510.197 80.2329C517.377 80.2329 523.197 74.4126 523.197 67.2329C523.197 60.0532 517.377 54.2329 510.197 54.2329C503.017 54.2329 497.197 60.0532 497.197 67.2329C497.197 74.4126 503.017 80.2329 510.197 80.2329Z" fill="#E8233B"/>
<path d="M537.557 279.749C544.737 279.749 550.557 273.929 550.557 266.749C550.557 259.569 544.737 253.749 537.557 253.749C530.377 253.749 524.557 259.569 524.557 266.749C524.557 273.929 530.377 279.749 537.557 279.749Z" fill="#E8233B"/>
<path d="M476.085 275.102L475.131 285.612H457.03C457.03 285.612 458.755 280.832 460.261 275.849L476.085 275.102Z" fill="#FD8B66"/>
<path d="M468.561 222.522L457.221 258.072L485.301 258.702L495.381 222.522H468.561Z" fill="#003347"/>
<path d="M490.312 264.552C489.472 261.072 490.912 254.592 491.272 251.352C491.632 248.112 492.952 237.792 492.952 237.792C488.992 234.912 488.152 243.912 487.552 244.752C486.952 245.592 484.312 242.502 484.312 242.502L480.512 238.628C476.48 239.143 472.417 239.385 468.352 239.352C467.152 239.352 467.152 240.672 467.152 240.672C467.152 240.672 482.992 241.032 482.272 243.432C481.717 245.282 472.607 245.278 468.461 245.179C472.712 245.347 482.178 245.876 482.271 247.272C482.391 249.072 464.871 249.912 464.871 249.912C464.871 249.912 479.391 250.752 479.871 252.912C480.038 253.662 476.271 254.298 471.228 254.806H471.229L478.551 263.039C472.911 284.325 477.351 286.392 479.151 288.102C480.951 289.812 491.511 279.072 492.951 276.493C494.391 273.914 491.151 268.032 490.311 264.552H490.312Z" fill="#FD8B66"/>
<path d="M386.751 237.312C386.751 237.312 385.071 279.072 396.471 280.032C407.871 280.992 445.431 256.272 446.871 256.272C448.311 256.272 480.351 255.072 479.871 252.912C479.391 250.752 464.871 249.912 464.871 249.912C464.871 249.912 482.391 249.072 482.271 247.272C482.151 245.472 466.431 245.112 466.431 245.112C466.431 245.112 481.553 245.832 482.272 243.432C482.991 241.032 467.152 240.672 467.152 240.672C467.152 240.672 467.152 239.352 468.352 239.352C469.552 239.352 483.352 239.352 483.472 237.312C483.592 235.272 469.072 233.832 467.512 233.832C465.952 233.832 462.832 231.312 464.152 230.832C464.152 230.832 463.192 229.512 456.232 232.272C449.272 235.032 412.432 249.672 412.432 249.672L411.832 235.632L386.751 237.312Z" fill="#FD8B66"/>
<path d="M446.871 256.272C450.949 256.024 455.023 255.726 459.094 255.411C463.164 255.09 467.228 254.696 471.274 254.251C473.291 254.014 475.318 253.759 477.274 253.353C477.75 253.256 478.221 253.133 478.684 252.985C478.879 252.925 479.068 252.844 479.247 252.745C479.293 252.725 479.334 252.635 479.232 252.81C479.215 252.864 479.206 252.921 479.204 252.977C479.218 253.067 479.22 253.065 479.213 253.064C479.201 253.069 479.229 253.083 479.213 253.068C478.925 252.83 478.591 252.652 478.232 252.545C477.776 252.385 477.312 252.251 476.84 252.145C472.873 251.395 468.856 250.934 464.822 250.765C464.605 250.751 464.4 250.655 464.252 250.495C464.103 250.336 464.021 250.125 464.022 249.907C464.023 249.689 464.108 249.48 464.258 249.322C464.408 249.164 464.613 249.07 464.831 249.058C467.652 248.902 470.468 248.684 473.279 248.403C474.677 248.264 476.072 248.092 477.462 247.887C478.146 247.784 478.827 247.663 479.504 247.523C480.126 247.41 480.733 247.231 481.316 246.987C481.361 246.971 481.403 246.948 481.44 246.918C481.467 246.904 481.505 246.873 481.44 246.931C481.411 246.965 481.438 246.952 481.385 247.034C481.339 247.118 481.321 247.215 481.335 247.309C481.303 247.454 481.449 247.642 481.433 247.634C481.443 247.65 481.457 247.662 481.474 247.669L481.434 247.649C481.398 247.621 481.357 247.6 481.314 247.585C481.192 247.528 481.066 247.479 480.938 247.437C480.306 247.248 479.661 247.104 479.008 247.007C477.648 246.791 476.252 246.65 474.853 246.534C472.053 246.304 469.219 246.196 466.409 246.106L466.479 244.119C469.117 244.239 471.79 244.28 474.429 244.201C475.748 244.159 477.065 244.084 478.348 243.928C478.975 243.858 479.597 243.749 480.21 243.601C480.486 243.533 480.758 243.446 481.022 243.34C481.157 243.28 481.284 243.206 481.402 243.118C481.365 243.204 481.357 243.3 481.381 243.391C481.388 243.418 481.402 243.442 481.421 243.461C481.419 243.464 481.417 243.468 481.417 243.471L481.425 243.469L481.38 243.439C481.189 243.302 480.979 243.194 480.756 243.118C480.172 242.91 479.572 242.746 478.963 242.628C477.7 242.37 476.39 242.196 475.077 242.053C472.436 241.782 469.786 241.605 467.132 241.523L467.091 241.521C466.874 241.514 466.669 241.421 466.521 241.262C466.373 241.104 466.294 240.893 466.301 240.676V240.672C466.308 240.356 466.372 240.044 466.492 239.752C466.623 239.422 466.838 239.132 467.117 238.911C467.408 238.69 467.756 238.557 468.12 238.528L468.359 238.515L468.512 238.517L468.818 238.52H471.273C472.909 238.505 474.545 238.465 476.173 238.374C477.787 238.304 479.395 238.133 480.988 237.862C481.366 237.793 481.738 237.7 482.104 237.584C482.373 237.515 482.625 237.392 482.844 237.221C482.834 237.178 482.858 237.394 482.846 237.34C482.776 237.251 482.689 237.177 482.591 237.12C482.274 236.933 481.941 236.776 481.594 236.652C478.476 235.726 475.284 235.068 472.054 234.687C470.411 234.457 468.843 234.26 467.132 234.127C466.285 233.902 465.498 233.492 464.828 232.927C464.484 232.66 464.177 232.348 463.915 231.999C463.763 231.805 463.659 231.579 463.609 231.337C463.587 231.177 463.627 231.015 463.721 230.883C463.811 230.72 463.954 230.702 464.075 230.623L463.972 230.963C463.73 230.818 463.454 230.737 463.172 230.726C462.84 230.703 462.507 230.706 462.176 230.737C461.499 230.801 460.828 230.913 460.167 231.073C458.834 231.398 457.52 231.798 456.232 232.272C457.495 231.721 458.789 231.242 460.106 230.837C460.77 230.631 461.451 230.48 462.14 230.386C462.491 230.338 462.846 230.318 463.2 230.328C463.61 230.314 464.011 230.446 464.331 230.701C464.353 230.72 464.369 230.743 464.38 230.77C464.391 230.796 464.395 230.824 464.393 230.853C464.391 230.881 464.382 230.909 464.367 230.933C464.352 230.957 464.331 230.977 464.307 230.992L464.227 231.041C464.097 231.12 464.064 231.156 464.076 231.269C464.125 231.429 464.207 231.576 464.316 231.702C464.564 232.001 464.849 232.265 465.166 232.489C465.781 232.963 466.49 233.299 467.246 233.474C468.822 233.517 470.533 233.657 472.158 233.812C473.807 233.964 475.45 234.171 477.085 234.432C478.748 234.67 480.389 235.036 481.995 235.527C482.428 235.669 482.846 235.854 483.243 236.079C483.503 236.227 483.727 236.43 483.898 236.675C483.955 236.759 484.001 236.85 484.036 236.945C484.068 237.064 484.088 237.186 484.095 237.308C484.086 237.533 484.013 237.75 483.883 237.934C483.53 238.355 483.057 238.659 482.528 238.806C482.113 238.952 481.69 239.071 481.26 239.162C479.614 239.49 477.949 239.714 476.275 239.832C474.618 239.969 472.964 240.054 471.309 240.115L468.825 240.182L468.514 240.187L468.359 240.189L468.289 240.197C468.241 240.201 468.195 240.217 468.155 240.244C468.058 240.366 468.004 240.516 468.002 240.672L467.171 239.822C469.877 239.889 472.559 240.029 475.259 240.29C476.609 240.425 477.959 240.59 479.322 240.855C480.029 240.986 480.725 241.171 481.403 241.409C481.815 241.551 482.201 241.758 482.547 242.022C482.669 242.111 482.777 242.218 482.866 242.34L483.017 242.547C483.066 242.646 483.107 242.748 483.141 242.853C483.214 243.069 483.23 243.3 483.186 243.523C483.155 243.721 483.083 243.91 482.976 244.078C482.676 244.509 482.256 244.842 481.768 245.036C481.413 245.185 481.048 245.308 480.675 245.404C479.988 245.577 479.291 245.707 478.587 245.792C477.213 245.972 475.854 246.06 474.498 246.116C471.783 246.221 469.098 246.203 466.384 246.105C466.122 246.095 465.875 245.981 465.697 245.79C465.518 245.598 465.422 245.344 465.43 245.082C465.438 244.82 465.549 244.572 465.739 244.392C465.929 244.211 466.182 244.113 466.444 244.118H466.454C469.32 244.188 472.16 244.355 475.019 244.605C476.448 244.736 477.877 244.892 479.321 245.135C480.072 245.254 480.812 245.428 481.537 245.655C481.746 245.725 481.949 245.809 482.147 245.905C482.268 245.959 482.383 246.025 482.49 246.103L482.67 246.231C482.748 246.304 482.822 246.381 482.89 246.463C483.077 246.688 483.186 246.967 483.202 247.259C483.195 247.442 483.157 247.623 483.09 247.793C483.04 247.91 482.971 248.017 482.885 248.11C482.772 248.251 482.635 248.37 482.481 248.463C482.374 248.538 482.261 248.601 482.141 248.653C481.416 248.965 480.658 249.19 479.881 249.326C479.158 249.471 478.442 249.586 477.727 249.691C476.299 249.891 474.876 250.048 473.453 250.179C470.605 250.442 467.768 250.629 464.913 250.766L464.921 249.059C466.984 249.191 469.021 249.399 471.065 249.664C473.126 249.907 475.17 250.274 477.187 250.763C477.709 250.896 478.223 251.059 478.725 251.252C479.345 251.451 479.897 251.817 480.32 252.311C480.39 252.419 480.446 252.536 480.486 252.658C480.556 252.86 480.553 253.08 480.478 253.279C480.369 253.534 480.176 253.745 479.931 253.875C479.662 254.023 479.378 254.14 479.083 254.224C478.569 254.374 478.048 254.496 477.521 254.589C475.465 254.958 473.427 255.155 471.384 255.342C467.302 255.712 463.214 255.869 459.129 256.027C455.044 256.173 450.959 256.287 446.871 256.272V256.272Z" fill="#D04719"/>
<path d="M481.251 232.842C481.649 232.842 482.03 232.684 482.312 232.402C482.593 232.121 482.751 231.74 482.751 231.342C482.751 230.944 482.593 230.562 482.312 230.281C482.03 230 481.649 229.842 481.251 229.842C480.853 229.842 480.472 230 480.19 230.281C479.909 230.562 479.751 230.944 479.751 231.342C479.751 231.74 479.909 232.121 480.19 232.402C480.472 232.684 480.853 232.842 481.251 232.842V232.842Z" fill="#F89017"/>
<path d="M284.442 55.4579L328.302 55.4199C328.593 55.4195 328.88 55.4764 329.149 55.5873C329.418 55.6981 329.662 55.8608 329.867 56.066C330.073 56.2713 330.236 56.515 330.348 56.7834C330.459 57.0517 330.517 57.3394 330.517 57.6299L330.541 84.9129C330.541 85.2036 330.485 85.4915 330.374 85.7601C330.263 86.0288 330.1 86.2729 329.895 86.4786C329.689 86.6843 329.445 86.8476 329.177 86.959C328.908 87.0704 328.621 87.1278 328.33 87.1279L284.47 87.1659C283.883 87.1667 283.319 86.9343 282.903 86.5196C282.487 86.105 282.253 85.5422 282.252 84.9549L282.228 57.6729C282.228 57.0856 282.461 56.5224 282.876 56.107C283.292 55.6917 283.855 55.4582 284.442 55.4579V55.4579Z" fill="#FFB957"/>
<path d="M330.318 56.573L306.404 75.706L282.444 56.622L282.577 56.332L306.402 73.059L330.185 56.291L330.318 56.573Z" fill="#E6560F"/>
<path d="M555.604 79.5322C555.604 80.7485 555.243 81.9376 554.568 82.9489C553.892 83.9603 552.931 84.7485 551.807 85.214C550.684 85.6795 549.447 85.8013 548.254 85.564C547.061 85.3267 545.965 84.741 545.105 83.8809C544.245 83.0208 543.659 81.925 543.422 80.732C543.185 79.539 543.307 78.3024 543.772 77.1787C544.238 76.0549 545.026 75.0944 546.037 74.4186C547.049 73.7429 548.238 73.3822 549.454 73.3822C550.262 73.3816 551.062 73.5404 551.808 73.8492C552.554 74.1581 553.233 74.6111 553.804 75.1823C554.375 75.7535 554.828 76.4316 555.137 77.178C555.446 77.9244 555.604 78.7244 555.604 79.5322ZM549.454 54.9342C549.047 54.9334 548.656 54.7712 548.368 54.4831C548.08 54.195 547.918 53.8046 547.917 53.3972V50.3222C547.917 49.9144 548.079 49.5233 548.367 49.235C548.656 48.9467 549.047 48.7847 549.454 48.7847C549.862 48.7847 550.253 48.9467 550.542 49.235C550.83 49.5233 550.992 49.9144 550.992 50.3222V53.3972C550.991 53.8047 550.829 54.1954 550.541 54.4835C550.252 54.7716 549.861 54.9336 549.454 54.9342V54.9342Z" fill="#CA5303"/>
<path d="M563.873 74.7809C562.727 73.8146 561.805 72.6093 561.174 71.2495C560.542 69.8897 560.215 68.4083 560.216 66.9089V62.6199C560.216 59.7658 559.082 57.0285 557.064 55.0104C555.046 52.9922 552.309 51.8584 549.455 51.8584C546.6 51.8584 543.863 52.9922 541.845 55.0104C539.827 57.0285 538.693 59.7658 538.693 62.6199V66.9079C538.693 68.411 538.365 69.896 537.731 71.2589C537.097 72.6218 536.173 73.8296 535.023 74.7979C534.605 75.1549 534.306 75.6317 534.167 76.1639C534.028 76.6961 534.055 77.2582 534.246 77.7742C534.437 78.2902 534.781 78.7353 535.232 79.0494C535.684 79.3636 536.221 79.5316 536.771 79.5309H562.138C562.69 79.5303 563.228 79.3603 563.68 79.0439C564.131 78.7275 564.475 78.28 564.665 77.7618C564.854 77.2437 564.879 76.68 564.738 76.1469C564.596 75.6137 564.294 75.1369 563.873 74.7809V74.7809Z" fill="#FFB957"/>
<path d="M387.714 233.94C388.112 233.94 388.493 233.782 388.775 233.5C389.056 233.219 389.214 232.838 389.214 232.44C389.214 232.042 389.056 231.66 388.775 231.379C388.493 231.098 388.112 230.94 387.714 230.94C387.316 230.94 386.935 231.098 386.653 231.379C386.372 231.66 386.214 232.042 386.214 232.44C386.214 232.838 386.372 233.219 386.653 233.5C386.935 233.782 387.316 233.94 387.714 233.94V233.94ZM397.254 233.04C397.652 233.04 398.033 232.882 398.315 232.6C398.596 232.319 398.754 231.938 398.754 231.54C398.754 231.142 398.596 230.76 398.315 230.479C398.033 230.198 397.652 230.04 397.254 230.04C396.856 230.04 396.475 230.198 396.193 230.479C395.912 230.76 395.754 231.142 395.754 231.54C395.754 231.938 395.912 232.319 396.193 232.6C396.475 232.882 396.856 233.04 397.254 233.04V233.04ZM405.534 232.86C405.932 232.86 406.313 232.702 406.595 232.42C406.876 232.139 407.034 231.758 407.034 231.36C407.034 230.962 406.876 230.58 406.595 230.299C406.313 230.018 405.932 229.86 405.534 229.86C405.136 229.86 404.755 230.018 404.473 230.299C404.192 230.58 404.034 230.962 404.034 231.36C404.034 231.758 404.192 232.139 404.473 232.42C404.755 232.702 405.136 232.86 405.534 232.86V232.86ZM412.914 232.86C413.312 232.86 413.693 232.702 413.975 232.42C414.256 232.139 414.414 231.758 414.414 231.36C414.414 230.962 414.256 230.58 413.975 230.299C413.693 230.018 413.312 229.86 412.914 229.86C412.516 229.86 412.135 230.018 411.853 230.299C411.572 230.58 411.414 230.962 411.414 231.36C411.414 231.758 411.572 232.139 411.853 232.42C412.135 232.702 412.516 232.86 412.914 232.86V232.86ZM499.674 231.6C500.072 231.6 500.453 231.442 500.735 231.16C501.016 230.879 501.174 230.498 501.174 230.1C501.174 229.702 501.016 229.32 500.735 229.039C500.453 228.758 500.072 228.6 499.674 228.6C499.276 228.6 498.895 228.758 498.613 229.039C498.332 229.32 498.174 229.702 498.174 230.1C498.174 230.498 498.332 230.879 498.613 231.16C498.895 231.442 499.276 231.6 499.674 231.6V231.6ZM494.994 235.2C495.392 235.2 495.773 235.042 496.055 234.76C496.336 234.479 496.494 234.098 496.494 233.7C496.494 233.302 496.336 232.92 496.055 232.639C495.773 232.358 495.392 232.2 494.994 232.2C494.596 232.2 494.215 232.358 493.933 232.639C493.652 232.92 493.494 233.302 493.494 233.7C493.494 234.098 493.652 234.479 493.933 234.76C494.215 235.042 494.596 235.2 494.994 235.2ZM420.654 180.84C421.052 180.84 421.433 180.682 421.715 180.4C421.996 180.119 422.154 179.738 422.154 179.34C422.154 178.942 421.996 178.56 421.715 178.279C421.433 177.998 421.052 177.84 420.654 177.84C420.256 177.84 419.875 177.998 419.593 178.279C419.312 178.56 419.154 178.942 419.154 179.34C419.154 179.738 419.312 180.119 419.593 180.4C419.875 180.682 420.256 180.84 420.654 180.84ZM424.614 187.68C425.012 187.68 425.393 187.522 425.675 187.24C425.956 186.959 426.114 186.578 426.114 186.18C426.114 185.782 425.956 185.4 425.675 185.119C425.393 184.838 425.012 184.68 424.614 184.68C424.216 184.68 423.835 184.838 423.553 185.119C423.272 185.4 423.114 185.782 423.114 186.18C423.114 186.578 423.272 186.959 423.553 187.24C423.835 187.522 424.216 187.68 424.614 187.68V187.68ZM430.734 194.7C431.132 194.7 431.513 194.542 431.795 194.26C432.076 193.979 432.234 193.598 432.234 193.2C432.234 192.802 432.076 192.42 431.795 192.139C431.513 191.858 431.132 191.7 430.734 191.7C430.336 191.7 429.955 191.858 429.673 192.139C429.392 192.42 429.234 192.802 429.234 193.2C429.234 193.598 429.392 193.979 429.673 194.26C429.955 194.542 430.336 194.7 430.734 194.7V194.7ZM423.322 150.612C424.212 150.612 425.082 150.348 425.822 149.853C426.562 149.359 427.139 148.656 427.479 147.834C427.82 147.012 427.909 146.107 427.736 145.234C427.562 144.361 427.133 143.559 426.504 142.93C425.875 142.301 425.073 141.872 424.2 141.698C423.327 141.525 422.422 141.614 421.6 141.954C420.778 142.295 420.075 142.872 419.58 143.612C419.086 144.352 418.822 145.222 418.822 146.112C418.835 147.301 419.313 148.438 420.154 149.279C420.995 150.121 422.133 150.599 423.322 150.612V150.612ZM379.074 525.18C379.472 525.18 379.853 525.022 380.135 524.74C380.416 524.459 380.574 524.078 380.574 523.68C380.574 523.282 380.416 522.9 380.135 522.619C379.853 522.338 379.472 522.18 379.074 522.18C378.676 522.18 378.295 522.338 378.013 522.619C377.732 522.9 377.574 523.282 377.574 523.68C377.574 524.078 377.732 524.459 378.013 524.74C378.295 525.022 378.676 525.18 379.074 525.18ZM390.594 527.7C390.992 527.7 391.373 527.542 391.655 527.26C391.936 526.979 392.094 526.598 392.094 526.2C392.094 525.802 391.936 525.42 391.655 525.139C391.373 524.858 390.992 524.7 390.594 524.7C390.196 524.7 389.815 524.858 389.533 525.139C389.252 525.42 389.094 525.802 389.094 526.2C389.094 526.598 389.252 526.979 389.533 527.26C389.815 527.542 390.196 527.7 390.594 527.7V527.7ZM402.114 529.14C402.512 529.14 402.893 528.982 403.175 528.701C403.456 528.419 403.614 528.038 403.614 527.64C403.614 527.242 403.456 526.86 403.175 526.579C402.893 526.298 402.512 526.14 402.114 526.14C401.716 526.14 401.335 526.298 401.053 526.579C400.772 526.86 400.614 527.242 400.614 527.64C400.614 528.038 400.772 528.419 401.053 528.701C401.335 528.982 401.716 529.14 402.114 529.14V529.14ZM414.354 529.5C414.752 529.5 415.133 529.342 415.415 529.06C415.696 528.779 415.854 528.398 415.854 528C415.854 527.602 415.696 527.22 415.415 526.939C415.133 526.658 414.752 526.5 414.354 526.5C413.956 526.5 413.575 526.658 413.293 526.939C413.012 527.22 412.854 527.602 412.854 528C412.854 528.398 413.012 528.779 413.293 529.06C413.575 529.342 413.956 529.5 414.354 529.5ZM425.874 527.7C426.272 527.7 426.653 527.542 426.935 527.26C427.216 526.979 427.374 526.598 427.374 526.2C427.374 525.802 427.216 525.42 426.935 525.139C426.653 524.858 426.272 524.7 425.874 524.7C425.476 524.7 425.095 524.858 424.813 525.139C424.532 525.42 424.374 525.802 424.374 526.2C424.374 526.598 424.532 526.979 424.813 527.26C425.095 527.542 425.476 527.7 425.874 527.7V527.7ZM437.034 525.9C437.432 525.9 437.813 525.742 438.095 525.46C438.376 525.179 438.534 524.798 438.534 524.4C438.534 524.002 438.376 523.62 438.095 523.339C437.813 523.058 437.432 522.9 437.034 522.9C436.636 522.9 436.255 523.058 435.973 523.339C435.692 523.62 435.534 524.002 435.534 524.4C435.534 524.798 435.692 525.179 435.973 525.46C436.255 525.742 436.636 525.9 437.034 525.9ZM448.194 524.1C448.592 524.1 448.973 523.942 449.255 523.66C449.536 523.379 449.694 522.998 449.694 522.6C449.694 522.202 449.536 521.82 449.255 521.539C448.973 521.258 448.592 521.1 448.194 521.1C447.796 521.1 447.415 521.258 447.133 521.539C446.852 521.82 446.694 522.202 446.694 522.6C446.694 522.998 446.852 523.379 447.133 523.66C447.415 523.942 447.796 524.1 448.194 524.1V524.1ZM461.154 523.74C461.552 523.74 461.933 523.582 462.215 523.3C462.496 523.019 462.654 522.638 462.654 522.24C462.654 521.842 462.496 521.46 462.215 521.179C461.933 520.898 461.552 520.74 461.154 520.74C460.756 520.74 460.375 520.898 460.093 521.179C459.812 521.46 459.654 521.842 459.654 522.24C459.654 522.638 459.812 523.019 460.093 523.3C460.375 523.582 460.756 523.74 461.154 523.74ZM473.034 523.74C473.432 523.74 473.813 523.582 474.095 523.3C474.376 523.019 474.534 522.638 474.534 522.24C474.534 521.842 474.376 521.46 474.095 521.179C473.813 520.898 473.432 520.74 473.034 520.74C472.636 520.74 472.255 520.898 471.973 521.179C471.692 521.46 471.534 521.842 471.534 522.24C471.534 522.638 471.692 523.019 471.973 523.3C472.255 523.582 472.636 523.74 473.034 523.74ZM482.754 525.18C483.152 525.18 483.533 525.022 483.815 524.74C484.096 524.459 484.254 524.078 484.254 523.68C484.254 523.282 484.096 522.9 483.815 522.619C483.533 522.338 483.152 522.18 482.754 522.18C482.356 522.18 481.975 522.338 481.693 522.619C481.412 522.9 481.254 523.282 481.254 523.68C481.254 524.078 481.412 524.459 481.693 524.74C481.975 525.022 482.356 525.18 482.754 525.18Z" fill="#78A7C6"/>
</svg>
