<svg width="222" height="156" viewBox="0 0 222 156" fill="none" xmlns="http://www.w3.org/2000/svg">
<path d="M18.4367 96.5584C15.5887 96.5584 12.9967 95.9504 10.6607 94.7344C8.35675 93.5184 6.51675 91.7264 5.14075 89.3584C3.79675 86.9584 3.12475 84.0144 3.12475 80.5264C3.12475 77.0704 3.81275 74.1264 5.18875 71.6944C6.59675 69.2304 8.45275 67.3584 10.7567 66.0784C13.0607 64.7664 15.6047 64.1104 18.3887 64.1104C20.6607 64.1104 22.6127 64.5264 24.2447 65.3584C25.8767 66.1904 27.2047 67.1344 28.2287 68.1904L24.5327 72.7024C23.7327 71.9984 22.8847 71.4064 21.9887 70.9264C21.0927 70.4464 19.9727 70.2064 18.6287 70.2064C16.1967 70.2064 14.2127 71.1024 12.6767 72.8944C11.1407 74.6864 10.3727 77.1504 10.3727 80.2864C10.3727 83.4864 11.1087 85.9824 12.5807 87.7744C14.0527 89.5664 16.2447 90.4624 19.1567 90.4624C19.7967 90.4624 20.4207 90.3824 21.0287 90.2224C21.6367 90.0624 22.1327 89.8224 22.5167 89.5024V84.1264H17.3327V78.3664H28.7568V92.7664C27.6687 93.8224 26.2127 94.7184 24.3887 95.4544C22.5967 96.1904 20.6127 96.5584 18.4367 96.5584ZM33.4461 95.9824V62.3344H40.5021V70.5904L40.1661 74.8624C41.0621 74.0624 42.1021 73.3264 43.2861 72.6544C44.5021 71.9504 45.9101 71.5984 47.5101 71.5984C50.1021 71.5984 51.9741 72.4624 53.1261 74.1904C54.3101 75.8864 54.9021 78.2224 54.9021 81.1984V95.9824H47.8461V82.1104C47.8461 80.3824 47.6061 79.1984 47.1261 78.5584C46.6781 77.9184 45.9421 77.5984 44.9181 77.5984C44.0221 77.5984 43.2541 77.8064 42.6141 78.2224C41.9741 78.6064 41.2701 79.1664 40.5021 79.9024V95.9824H33.4461ZM69.892 96.5584C67.876 96.5584 65.972 96.0784 64.18 95.1184C62.42 94.1264 60.996 92.7024 59.908 90.8464C58.82 88.9584 58.276 86.7024 58.276 84.0784C58.276 81.4224 58.82 79.1664 59.908 77.3104C60.996 75.4544 62.42 74.0464 64.18 73.0864C65.972 72.0944 67.876 71.5984 69.892 71.5984C71.908 71.5984 73.796 72.0944 75.556 73.0864C77.316 74.0464 78.74 75.4544 79.828 77.3104C80.916 79.1664 81.46 81.4224 81.46 84.0784C81.46 86.7024 80.916 88.9584 79.828 90.8464C78.74 92.7024 77.316 94.1264 75.556 95.1184C73.796 96.0784 71.908 96.5584 69.892 96.5584ZM69.892 90.8464C71.332 90.8464 72.42 90.2384 73.156 89.0224C73.892 87.7744 74.26 86.1264 74.26 84.0784C74.26 81.9984 73.892 80.3504 73.156 79.1344C72.42 77.9184 71.332 77.3104 69.892 77.3104C68.42 77.3104 67.316 77.9184 66.58 79.1344C65.876 80.3504 65.524 81.9984 65.524 84.0784C65.524 86.1264 65.876 87.7744 66.58 89.0224C67.316 90.2384 68.42 90.8464 69.892 90.8464ZM85.093 95.9824V72.1744H90.853L91.333 76.3504H91.525C92.389 74.7504 93.429 73.5664 94.645 72.7984C95.861 71.9984 97.077 71.5984 98.293 71.5984C98.965 71.5984 99.525 71.6464 99.973 71.7424C100.421 71.8064 100.805 71.9184 101.125 72.0784L99.973 78.1744C99.557 78.0464 99.141 77.9504 98.725 77.8864C98.341 77.8224 97.893 77.7904 97.381 77.7904C96.485 77.7904 95.541 78.1264 94.549 78.7984C93.589 79.4384 92.789 80.5584 92.149 82.1584V95.9824H85.093Z" fill="#DC0107"/>
<path d="M107.696 95V63.704H114.752V76.52H114.944L124.256 63.704H132.032L122.576 76.184L133.76 95H126.032L118.4 81.8L114.752 86.6V95H107.696ZM142.281 95.576C139.689 95.576 137.801 94.728 136.617 93.032C135.465 91.304 134.889 88.952 134.889 85.976V71.192H141.945V85.064C141.945 86.76 142.185 87.944 142.665 88.616C143.145 89.256 143.897 89.576 144.921 89.576C145.817 89.576 146.569 89.368 147.177 88.952C147.785 88.536 148.441 87.864 149.145 86.936V71.192H156.201V95H150.441L149.913 91.688H149.769C148.777 92.872 147.689 93.816 146.505 94.52C145.321 95.224 143.913 95.576 142.281 95.576ZM161.45 95V71.192H167.21L167.69 74.216H167.882C168.906 73.256 170.026 72.424 171.242 71.72C172.49 70.984 173.914 70.616 175.514 70.616C178.106 70.616 179.978 71.48 181.13 73.208C182.314 74.904 182.906 77.24 182.906 80.216V95H175.85V81.128C175.85 79.4 175.61 78.216 175.13 77.576C174.682 76.936 173.946 76.616 172.922 76.616C172.026 76.616 171.258 76.824 170.618 77.24C169.978 77.624 169.274 78.184 168.506 78.92V95H161.45ZM198.183 95.576C196.167 95.576 194.263 95.096 192.471 94.136C190.711 93.144 189.287 91.72 188.199 89.864C187.111 87.976 186.567 85.72 186.567 83.096C186.567 80.44 187.111 78.184 188.199 76.328C189.287 74.472 190.711 73.064 192.471 72.104C194.263 71.112 196.167 70.616 198.183 70.616C200.199 70.616 202.087 71.112 203.847 72.104C205.607 73.064 207.031 74.472 208.119 76.328C209.207 78.184 209.751 80.44 209.751 83.096C209.751 85.72 209.207 87.976 208.119 89.864C207.031 91.72 205.607 93.144 203.847 94.136C202.087 95.096 200.199 95.576 198.183 95.576ZM198.183 89.864C199.623 89.864 200.711 89.256 201.447 88.04C202.183 86.792 202.551 85.144 202.551 83.096C202.551 81.016 202.183 79.368 201.447 78.152C200.711 76.936 199.623 76.328 198.183 76.328C196.711 76.328 195.607 76.936 194.871 78.152C194.167 79.368 193.815 81.016 193.815 83.096C193.815 85.144 194.167 86.792 194.871 88.04C195.607 89.256 196.711 89.864 198.183 89.864Z" fill="url(#paint0_linear_545_1843)"/>
<defs>
<linearGradient id="paint0_linear_545_1843" x1="143.528" y1="72.7029" x2="78.9152" y2="80.2335" gradientUnits="userSpaceOnUse">
<stop stop-color="#FFAE00"/>
<stop offset="1" stop-color="#FF8A00"/>
</linearGradient>
</defs>
</svg>
