<svg width="700" height="506" viewBox="0 0 700 506" fill="none" xmlns="http://www.w3.org/2000/svg">
<path d="M434.696 477.326C450.946 472.246 465.526 467.056 483.066 457.206C501.156 447.046 581.516 398.696 591.966 315.016C594.704 292.082 592.431 268.827 585.306 246.856C582.076 237.386 575.376 218.366 558.466 199.556C537.766 176.516 514.146 167.586 500.296 162.536C471.156 151.906 446.716 152.466 435.076 152.846C422.516 153.256 400.346 154.176 375.146 165.186C358.706 172.366 348.486 180.556 333.426 192.796C309.566 212.206 306.426 220.286 264.686 260.366C253.226 271.366 243.806 280.036 229.426 288.576C219.456 294.496 211.396 297.806 196.526 303.846C159.976 318.696 149.569 321.703 137.609 330.063C114.349 346.333 115.856 364.076 114.856 367.896C112.255 377.665 111.653 387.859 113.086 397.866C116.136 417.936 126.946 431.056 133.656 438.996C142.866 449.796 154.027 458.765 166.556 465.436C175.253 470.025 184.262 473.998 193.516 477.326H434.696Z" fill="#EFEDEF"/>
<path d="M486.287 463.141L485.797 462.269C509.698 448.841 588.494 398.504 598.975 314.532C601.802 290.719 599.443 266.576 592.061 243.76C589.084 235.028 582.112 214.58 564.213 194.665C542.293 170.274 517.268 161.146 503.823 156.243C482.13 148.434 459.103 145.012 436.076 146.174C423.652 146.578 400.526 147.331 373.833 158.985L373.433 158.069C400.301 146.337 424.442 145.552 436.043 145.175C459.197 144.006 482.353 147.448 504.165 155.303C517.692 160.236 542.869 169.42 564.957 193.997C582.992 214.064 590.011 234.648 593.008 243.438C600.436 266.397 602.81 290.692 599.967 314.656C589.429 399.093 510.291 449.655 486.287 463.141Z" fill="#EFEDEF"/>
<path d="M274.689 449.992L275.22 465.389C275.22 465.389 317.578 477.278 318.417 472.233C318.417 472.233 321.672 472.178 299.669 459.792C295.4 457.197 292.18 453.184 290.572 448.456L274.689 449.992Z" fill="#F9977A"/>
<path d="M274.839 454.319V476.898H288.527L288.538 470.569C288.538 470.569 320.799 483.56 318.514 471.457C318.514 471.457 316.255 473.579 307.376 472.104L310.56 466.142L302.655 461.351L297.165 469.433L282.098 466.185C280.353 465.809 278.769 464.899 277.567 463.581C276.364 462.263 275.602 460.603 275.387 458.831L274.839 454.319Z" fill="#F73C4F"/>
<path d="M276.926 454.929C275.734 454.929 274.94 454.889 274.808 454.882C274.658 454.873 274.518 454.806 274.419 454.694C274.319 454.583 274.267 454.436 274.275 454.287C274.292 454.141 274.362 454.006 274.471 453.908C274.581 453.81 274.723 453.755 274.87 453.754C275.009 453.763 288.764 454.465 291.635 449.671C291.712 449.543 291.836 449.452 291.981 449.416C292.125 449.38 292.278 449.402 292.406 449.479C292.534 449.555 292.627 449.679 292.663 449.823C292.7 449.968 292.679 450.121 292.603 450.249C290.101 454.43 281.09 454.929 276.926 454.929Z" fill="#F73C4F"/>
<path d="M234.612 449.992L234.081 465.389C234.081 465.389 191.724 477.278 190.884 472.233C190.884 472.233 187.629 472.178 209.633 459.792C213.901 457.197 217.121 453.184 218.729 448.456L234.612 449.992Z" fill="#F9977A"/>
<path d="M234.463 454.319L234.306 476.898H221.018L220.369 474.26C220.369 474.26 185.821 480.121 190.788 471.457C190.788 471.457 193.046 473.579 201.925 472.104L198.086 466.547L206.646 461.351L212.136 469.433L226.987 466.232C228.795 465.842 230.436 464.899 231.682 463.533C232.929 462.167 233.718 460.447 233.941 458.611L234.463 454.319Z" fill="#F73C4F"/>
<path d="M232.376 454.93C228.212 454.93 219.201 454.43 216.698 450.249C216.622 450.121 216.601 449.968 216.637 449.823C216.674 449.679 216.767 449.555 216.895 449.478C217.023 449.402 217.176 449.379 217.32 449.415C217.465 449.451 217.589 449.543 217.667 449.671C220.539 454.467 234.292 453.763 234.432 453.755C234.58 453.749 234.725 453.802 234.836 453.901C234.947 454 235.015 454.139 235.026 454.287C235.034 454.436 234.983 454.583 234.883 454.695C234.783 454.806 234.643 454.874 234.494 454.882C234.362 454.89 233.567 454.93 232.376 454.93Z" fill="#F73C4F"/>
<path d="M265.431 218.452C267.941 213.766 270.418 206.736 270.131 196.539C268.068 192.622 265.198 189.187 261.712 186.459C263.307 186.493 264.59 186.587 265.819 186.491C273.985 185.85 284.062 176.464 283.079 167.574C282.223 159.826 273.275 155.262 271.099 154.151C268.388 152.626 265.331 151.821 262.221 151.813C259.11 151.804 256.049 152.593 253.33 154.103C250.033 155.935 247.298 158.631 245.418 161.902C243.457 165.097 243.513 165.408 239.953 168.46C236.011 171.84 233.365 172.923 231.266 176.671C229.936 179.044 229.98 183.006 230.203 185.919C224.342 190.836 221.769 197.61 221.092 199.397C218.176 207.089 218.124 216.431 218.11 218.896C218.079 224.401 218.749 228.08 216.342 232.164C214.203 235.792 211.927 235.856 209.255 238.769C204.281 244.194 202.612 254.399 206.383 260.865C212.568 271.467 232.836 271.075 240.452 262.938C245.582 257.457 241.108 252.59 246.037 241.778C251.371 230.079 259.246 229.999 265.431 218.452Z" fill="#160B07"/>
<path d="M96.751 300.673C96.3791 302.826 109.576 307.298 116.97 309.338C125.266 311.627 129.025 311.617 137.086 314.808C144.202 317.626 147.805 319.104 149.981 322.542C152.693 326.826 151.826 332.196 149.981 342.762C147.876 354.815 145.784 356.875 146.268 364.219C146.566 368.75 146.872 373.396 149.981 377.423C154.536 383.323 162.257 384.204 175.152 385.676C179.164 386.134 184.775 386.547 195.371 387.326C204.404 387.991 206.42 388.056 208.163 389.802C214.208 395.857 205.483 410.622 208.576 412.497C211.772 414.436 223.923 400.387 235.397 386.501C249.861 368.997 257.093 360.245 262.631 352.252C276.04 332.901 289.366 313.67 298.118 287.468C299.354 283.769 305.736 232.536 294.611 207.21C290.675 198.251 282.651 199.845 279.576 200.584C265.419 203.987 257.903 211.792 235.397 237.126C226.739 246.873 218.329 256.255 205.274 266.836C196.822 273.687 187.405 281.218 173.089 287.881C162.714 292.713 151.757 296.181 140.49 298.197C115.453 302.616 97.1854 298.159 96.751 300.673Z" fill="#F73C4F"/>
<path d="M208.576 379.074C211.32 376.718 214.035 374.329 216.72 371.907C219.428 369.512 222.115 367.095 224.783 364.655C230.121 359.781 235.424 354.869 240.612 349.838C245.837 344.845 250.918 339.706 255.941 334.51C258.411 331.875 260.922 329.274 263.31 326.562C265.782 323.922 268.102 321.151 270.471 318.416C268.211 321.238 265.996 324.104 263.627 326.839C261.3 329.613 258.839 332.268 256.422 334.963C251.491 340.263 246.394 345.407 241.208 350.456C235.962 355.443 230.66 360.371 225.222 365.146C222.498 367.528 219.755 369.887 216.993 372.224C214.214 374.54 211.408 376.823 208.576 379.074Z" fill="#B02336"/>
<path d="M273.822 198.308L278.383 201.935L281.654 215.54C283.089 228.256 274.068 237.773 266.448 237.849C258.67 237.926 249.265 228.197 250.934 215.161C252.057 209.804 253.179 204.446 254.302 199.089C254.302 199.089 257.268 198.736 259.783 190.497L273.822 198.308Z" fill="#F9977A"/>
<path d="M272.852 192.274C272.852 192.274 266.802 196.694 259.855 191.128C259.855 191.128 262.158 200.865 273.822 198.308C273.21 197.443 272.805 196.45 272.636 195.404C272.468 194.358 272.542 193.287 272.852 192.274Z" fill="#DD765E"/>
<path d="M280.558 172.266C278.286 161.102 270.259 153.31 262.63 154.863C256.742 156.061 252.815 162.478 252.372 170.475C252.106 170.3 251.804 170.185 251.487 170.139C251.171 170.093 250.849 170.117 250.543 170.21C248.886 170.826 248.537 174.001 249.764 177.301C250.8 180.088 252.626 182.066 254.168 182.246C257.386 190.999 264.268 196.632 270.858 195.291C278.487 193.738 282.83 183.429 280.558 172.266Z" fill="#F9977A"/>
<path d="M271.37 171.364C271.174 172.672 271.33 174.01 271.822 175.238C272.266 176.474 272.844 177.658 273.545 178.769L274.126 179.589C274.388 179.927 274.51 180.352 274.468 180.777C274.395 181.158 274.241 181.517 274.014 181.831C273.788 182.145 273.496 182.406 273.159 182.595C272.534 182.923 271.842 183.102 271.137 183.118C270.432 183.133 269.732 182.986 269.094 182.686C269.749 182.797 270.417 182.817 271.078 182.743C271.708 182.697 272.312 182.477 272.824 182.108C273.303 181.781 273.634 181.277 273.744 180.708C273.752 180.583 273.736 180.457 273.696 180.339C273.655 180.22 273.592 180.11 273.509 180.016C273.327 179.763 273.105 179.487 272.91 179.201C272.171 178.035 271.616 176.763 271.265 175.429C270.841 174.101 270.878 172.668 271.37 171.364Z" fill="#DD765E"/>
<path d="M259.452 174.135C259.363 174.114 259.28 174.07 259.212 174.007C259.144 173.945 259.093 173.866 259.065 173.779C259.036 173.691 259.03 173.597 259.048 173.507C259.066 173.416 259.107 173.332 259.166 173.262C259.301 173.103 262.522 169.384 266.89 170.151C266.96 170.164 267.026 170.189 267.086 170.227C267.146 170.265 267.197 170.315 267.238 170.373C267.279 170.431 267.308 170.496 267.323 170.565C267.338 170.634 267.34 170.706 267.328 170.775C267.315 170.845 267.29 170.911 267.252 170.971C267.214 171.031 267.164 171.082 267.106 171.123C267.048 171.164 266.983 171.193 266.914 171.208C266.845 171.223 266.773 171.225 266.704 171.213C262.936 170.551 260.016 173.925 259.987 173.96C259.923 174.035 259.839 174.092 259.744 174.123C259.65 174.154 259.549 174.158 259.452 174.135V174.135ZM273.601 170.152C273.488 170.126 273.387 170.064 273.313 169.976C273.238 169.888 273.194 169.778 273.186 169.663C273.178 169.547 273.208 169.433 273.271 169.336C273.333 169.239 273.425 169.164 273.533 169.123C275.637 168.392 277.921 168.356 280.047 169.021C280.181 169.069 280.291 169.168 280.352 169.296C280.413 169.425 280.421 169.573 280.374 169.707C280.326 169.842 280.227 169.952 280.099 170.014C279.971 170.075 279.823 170.084 279.688 170.037C277.801 169.462 275.782 169.495 273.915 170.132C273.814 170.17 273.705 170.177 273.601 170.152ZM260.59 176.491C261.003 175.92 261.513 175.426 262.097 175.032C262.685 174.617 263.347 174.319 264.046 174.154C264.76 173.99 265.504 174.02 266.202 174.242C266.881 174.46 267.494 174.848 267.982 175.369C267.396 175.031 266.761 174.786 266.1 174.644C265.458 174.522 264.798 174.534 264.162 174.68C262.859 175.031 261.643 175.647 260.59 176.491V176.491Z" fill="#160B07"/>
<path d="M265.447 176.713C266.114 176.713 266.655 176.172 266.655 175.505C266.655 174.838 266.114 174.297 265.447 174.297C264.78 174.297 264.239 174.838 264.239 175.505C264.239 176.172 264.78 176.713 265.447 176.713Z" fill="#160B07"/>
<path d="M276.946 175.276C277.613 175.276 278.154 174.735 278.154 174.068C278.154 173.401 277.613 172.86 276.946 172.86C276.279 172.86 275.738 173.401 275.738 174.068C275.738 174.735 276.279 175.276 276.946 175.276Z" fill="#160B07"/>
<path d="M272.921 175.307C273.334 174.736 273.844 174.242 274.428 173.847C275.016 173.433 275.677 173.135 276.377 172.97C277.09 172.806 277.835 172.836 278.532 173.058C279.212 173.276 279.825 173.664 280.312 174.185C279.727 173.847 279.092 173.602 278.43 173.46C277.789 173.338 277.129 173.35 276.493 173.496C275.19 173.847 273.974 174.463 272.921 175.307V175.307Z" fill="#160B07"/>
<path d="M250.348 174.071C250.362 173.557 250.534 173.06 250.841 172.647C251.023 172.4 251.283 172.223 251.579 172.144C251.738 172.107 251.903 172.102 252.064 172.129C252.225 172.156 252.379 172.214 252.517 172.301C252.963 172.596 253.313 173.015 253.525 173.507C253.739 173.952 253.877 174.429 253.935 174.919C253.589 174.558 253.311 174.178 253.019 173.83C252.774 173.496 252.476 173.205 252.136 172.968C252.004 172.878 251.844 172.838 251.685 172.855C251.526 172.873 251.379 172.946 251.269 173.063C250.927 173.365 250.618 173.704 250.348 174.071V174.071Z" fill="#DD765E"/>
<path d="M252.325 177.728C252.382 177.291 252.401 176.85 252.381 176.409C252.365 175.984 252.335 175.562 252.283 175.139C252.203 174.288 252.048 173.442 252.018 172.498C252.311 172.861 252.546 173.268 252.715 173.704C252.883 174.139 252.995 174.595 253.046 175.059C253.099 175.53 253.075 176.007 252.975 176.471C252.887 176.945 252.66 177.382 252.325 177.728V177.728Z" fill="#DD765E"/>
<path d="M251.71 183.113C253.035 183.113 254.109 182.039 254.109 180.714C254.109 179.389 253.035 178.315 251.71 178.315C250.385 178.315 249.311 179.389 249.311 180.714C249.311 182.039 250.385 183.113 251.71 183.113Z" fill="#FFCB33"/>
<path d="M266.656 160.834C265.322 161.928 258.436 172.756 255.954 173.967C255.678 174.121 255.361 174.185 255.047 174.152C254.076 174.01 253.685 172.752 252.606 170.983C251.791 169.647 251.436 169.417 250.96 168.668C250.12 167.195 249.638 165.545 249.553 163.851C249.469 162.157 249.784 160.468 250.473 158.918C251.793 156.336 254.043 154.35 256.769 153.363C262.423 150.941 267.887 153.056 269.273 153.593C277.599 156.815 281.153 165.058 280.859 165.3C280.513 165.585 273.495 155.225 266.656 160.834Z" fill="#160B07"/>
<path d="M270.129 190.889C271.671 190.889 272.922 189.639 272.922 188.096C272.922 186.554 271.671 185.303 270.129 185.303C268.586 185.303 267.336 186.554 267.336 188.096C267.336 189.639 268.586 190.889 270.129 190.889Z" fill="#DD2F22"/>
<path d="M254.86 198.958C254.86 198.958 262.597 223.888 268.614 224.747C274.632 225.607 275.922 200.247 275.922 200.247C275.922 200.247 290.536 201.107 297.413 205.405C304.29 209.703 325.782 229.476 325.782 229.476L313.747 241.511L293.115 233.774C293.115 233.774 287.957 255.265 287.957 258.704H243.254C243.254 258.704 238.956 234.633 238.096 233.774C237.237 232.914 214.886 237.212 214.886 237.212L193.394 232.054C193.394 232.054 231.219 206.265 232.938 205.405C234.658 204.545 247.553 199.387 254.86 198.958Z" fill="#FFBA55"/>
<path d="M276.351 244.52C276.351 244.52 284.28 249.678 290.632 244.52Z" fill="#E6952A"/>
<path d="M257.485 247.225C254.656 247.141 251.896 246.333 249.467 244.88L249.936 244.159C250.012 244.209 257.68 249.084 263.712 244.186L264.253 244.854C262.346 246.416 259.95 247.255 257.485 247.225V247.225Z" fill="white"/>
<path d="M244.269 258.704C244.269 258.704 244.544 270.31 240.246 275.467L290.536 275.038C290.536 275.038 286.444 266.441 286.77 258.704H244.269Z" fill="#F9977A"/>
<path d="M240.246 275.467C240.246 275.467 219.427 384.851 218.128 400.531C216.828 416.211 199.91 450.047 199.91 450.047C199.91 450.047 239.086 454.999 256.842 451.285C274.598 447.572 304.72 452.667 304.72 452.667C304.72 452.667 299.769 425.702 299.769 405.07C299.769 384.438 301.522 310.06 290.536 275.038L240.246 275.467Z" fill="#FFBA55"/>
<path d="M242.199 252.923C242.199 252.923 261.86 216.034 279.576 200.584C282.721 200.128 285.926 200.32 288.993 201.149C292.061 201.978 294.926 203.427 297.413 205.405C297.413 205.405 259.599 353.126 228.104 340.723C228.104 340.723 236.622 262.76 242.199 252.923Z" fill="#F73C4F"/>
<path d="M228.104 340.723L229.165 329.636L230.383 318.566C231.228 311.19 232.195 303.828 233.186 296.468C234.252 289.119 235.34 281.772 236.661 274.46C237.335 270.808 238.04 267.159 238.859 263.534C239.285 261.726 239.724 259.919 240.25 258.135C240.713 256.333 241.366 254.586 242.199 252.923C241.431 254.611 240.846 256.377 240.453 258.19C239.997 259.986 239.627 261.804 239.271 263.623C238.539 267.257 237.906 270.912 237.313 274.573C236.129 281.895 235.037 289.233 234.036 296.587C232.975 303.931 232.021 311.291 231.036 318.648L228.104 340.723ZM157.409 310.163L173.889 302.893C179.371 300.451 184.842 297.986 190.253 295.395C195.673 292.829 201.062 290.191 206.332 287.333C208.971 285.912 211.581 284.437 214.128 282.858C216.73 281.368 219.158 279.593 221.367 277.565C220.359 278.682 219.241 279.696 218.03 280.591L216.216 281.934L214.356 283.212C211.844 284.87 209.262 286.415 206.653 287.911C201.43 290.9 196.023 293.538 190.621 296.171C185.169 298.702 179.695 301.182 174.151 303.497C171.37 304.635 168.61 305.821 165.814 306.917L157.409 310.163ZM240.77 326.175L249.509 310.424C252.401 305.165 255.271 299.895 258.016 294.562C260.784 289.241 263.485 283.883 265.957 278.422C267.201 275.695 268.389 272.942 269.464 270.145C270.638 267.386 271.5 264.504 272.035 261.553C271.906 263.053 271.628 264.537 271.204 265.981L270.57 268.148L269.86 270.29C268.861 273.129 267.736 275.92 266.562 278.689C264.206 284.226 261.493 289.595 258.778 294.957C255.964 300.268 253.101 305.553 250.082 310.747C248.554 313.333 247.072 315.946 245.506 318.509L240.77 326.175ZM174.327 354.728L187.297 343.893C191.608 340.27 195.934 336.665 200.177 332.965C204.469 329.321 208.699 325.608 212.867 321.825C214.973 319.957 217.02 318.026 219.063 316.091L222.108 313.165L225.081 310.163C221.372 314.413 217.445 318.467 213.316 322.31C209.23 326.198 204.99 329.917 200.737 333.616C196.441 337.267 192.119 340.885 187.714 344.402C183.31 347.919 178.871 351.393 174.327 354.728ZM281.428 213.151L272.344 227.403C269.331 232.161 266.299 236.906 263.374 241.716C260.386 246.487 257.478 251.307 254.65 256.174C253.208 258.591 251.84 261.051 250.479 263.514L248.462 267.223L246.536 270.984C248.786 265.811 251.302 260.759 254.075 255.847C256.793 250.905 259.709 246.077 262.644 241.264C265.634 236.486 268.658 231.728 271.793 227.044C274.926 222.359 278.106 217.705 281.428 213.151ZM199.704 343.587C201.803 341.776 203.938 340.017 206.07 338.256L212.479 332.993L218.872 327.72C219.939 326.842 220.981 325.938 222.021 325.028L223.571 323.654L225.081 322.23C223.31 324.368 221.381 326.369 219.309 328.217C217.275 330.102 215.164 331.899 213.023 333.657C210.871 335.402 208.703 337.125 206.477 338.773C204.257 340.429 202.017 342.058 199.704 343.587ZM242.391 303.11C243.69 300.662 245.043 298.249 246.393 295.835L250.459 288.607L254.508 281.377C255.184 280.172 255.828 278.951 256.467 277.727L257.415 275.884L258.306 274.01C257.43 276.644 256.356 279.208 255.095 281.681C253.882 284.175 252.565 286.616 251.207 289.03C249.834 291.435 248.437 293.827 246.96 296.17C245.49 298.517 243.993 300.847 242.391 303.11ZM263.831 262.115C265.131 259.666 266.484 257.254 267.834 254.84L271.9 247.612L275.948 240.381C276.624 239.176 277.269 237.956 277.908 236.732L278.855 234.889L279.746 233.014C278.87 235.649 277.797 238.213 276.535 240.686C275.322 243.18 274.006 245.62 272.648 248.034C271.274 250.44 269.878 252.832 268.4 255.175C266.93 257.522 265.433 259.852 263.831 262.115Z" fill="#B02336"/>
<path d="M214.886 237.213L228.176 259.615L243.73 266.085C243.73 266.085 244.063 282.104 238.905 281.072L220.336 267.086L195.915 244.146C194.305 242.633 193.199 240.661 192.748 238.498C192.297 236.335 192.522 234.085 193.394 232.055L214.886 237.213ZM313.747 241.511L301.625 260.853L287.724 266.871C287.724 266.871 289.659 278.597 294.198 282.517L308.64 268.074L330.743 248.57C334.307 245.425 335.1 242.068 331.682 236.362C329.985 233.529 329.684 233.014 325.782 229.476L313.747 241.511Z" fill="#F9977A"/>
<path d="M287.724 266.871L286.434 267.57L289.861 275.043" fill="#DD765E"/>
<path d="M273.266 281.12L273.622 313.219C273.777 323.917 273.91 334.615 274.191 345.31C274.426 356.005 274.748 366.698 275.249 377.382C275.524 382.722 275.789 388.064 276.245 393.392C276.592 398.729 277.23 404.043 278.155 409.311C275.979 398.82 275.301 388.088 274.589 377.417C273.951 366.729 273.635 356.029 273.332 345.33C273.123 334.628 272.978 323.927 272.963 313.224L273.016 297.171L273.266 281.12ZM259.038 313.14C258.954 319.376 258.67 325.608 258.292 331.834C257.91 338.061 257.357 344.276 256.743 350.486C256.038 356.686 255.234 362.879 254.13 369.026C252.966 375.143 251.663 381.33 249.031 387.007L249.824 384.808C250.115 384.086 250.36 383.348 250.56 382.596C250.941 381.086 251.419 379.606 251.719 378.077C252.036 376.554 252.389 375.04 252.683 373.512L253.479 368.913C254.444 362.765 255.247 356.592 255.889 350.394C256.574 344.203 257.112 337.996 257.635 331.787C258.15 325.577 258.6 319.361 259.038 313.14ZM263.982 335.656C264.063 342.723 264.053 349.789 264.033 356.855L263.879 378.052L263.566 399.246L263.371 409.843C263.293 413.375 263.213 416.907 263.187 420.44C262.911 413.375 262.928 406.306 262.905 399.24C262.898 392.174 262.974 385.108 263.021 378.042L263.375 356.847C263.533 349.782 263.708 342.718 263.982 335.656Z" fill="#E6952A"/>
<path d="M270.47 170.124C270.721 170.115 270.959 170.009 271.133 169.829C271.307 169.648 271.405 169.407 271.405 169.157C271.405 168.906 271.307 168.665 271.133 168.484C270.959 168.304 270.721 168.198 270.47 168.189C270.22 168.198 269.982 168.304 269.808 168.484C269.634 168.665 269.536 168.906 269.536 169.157C269.536 169.407 269.634 169.648 269.808 169.829C269.982 170.009 270.22 170.115 270.47 170.124V170.124Z" fill="#F73C4F"/>
<path d="M401.677 172.384C401.677 169.732 402.731 167.188 404.606 165.312C406.481 163.436 409.025 162.382 411.677 162.38C410.364 162.381 409.064 162.123 407.85 161.621C406.637 161.119 405.535 160.382 404.606 159.454C403.677 158.526 402.941 157.424 402.438 156.211C401.936 154.998 401.677 153.697 401.677 152.384C401.677 155.036 400.624 157.579 398.75 159.454C396.875 161.33 394.333 162.383 391.681 162.384C394.333 162.385 396.875 163.439 398.75 165.314C400.624 167.19 401.677 169.733 401.677 172.384V172.384ZM119.748 268.704C119.749 266.052 120.802 263.508 122.677 261.632C124.553 259.756 127.096 258.701 129.748 258.7C128.435 258.701 127.135 258.442 125.922 257.94C124.708 257.438 123.606 256.702 122.677 255.774C121.749 254.845 121.012 253.743 120.51 252.53C120.007 251.317 119.748 250.017 119.748 248.704C119.749 251.355 118.696 253.899 116.821 255.774C114.947 257.649 112.404 258.703 109.752 258.704C112.404 258.705 114.947 259.759 116.821 261.634C118.696 263.509 119.749 266.052 119.748 268.704V268.704ZM139.744 397.007C139.745 394.355 140.798 391.811 142.673 389.935C144.549 388.059 147.092 387.005 149.744 387.003C148.431 387.004 147.131 386.746 145.918 386.244C144.704 385.742 143.602 385.005 142.673 384.077C141.745 383.149 141.008 382.047 140.506 380.834C140.003 379.621 139.744 378.32 139.744 377.007C139.745 379.659 138.692 382.202 136.817 384.077C134.943 385.953 132.4 387.007 129.748 387.007C132.4 387.008 134.943 388.062 136.817 389.937C138.692 391.813 139.745 394.356 139.744 397.007V397.007ZM307.409 188.311C307.409 185.658 308.463 183.114 310.338 181.238C312.213 179.362 314.757 178.308 317.409 178.307C316.096 178.307 314.796 178.049 313.583 177.547C312.369 177.045 311.267 176.309 310.338 175.38C309.41 174.452 308.673 173.35 308.17 172.137C307.668 170.924 307.409 169.624 307.409 168.311C307.409 170.962 306.356 173.505 304.482 175.38C302.607 177.256 300.065 178.31 297.413 178.311C300.065 178.311 302.607 179.365 304.482 181.241C306.356 183.116 307.409 185.659 307.409 188.311V188.311ZM313.606 329.515C313.606 326.863 314.66 324.319 316.535 322.443C318.41 320.567 320.954 319.513 323.606 319.511C322.293 319.512 320.993 319.254 319.779 318.752C318.566 318.25 317.464 317.513 316.535 316.585C315.606 315.657 314.87 314.555 314.367 313.342C313.865 312.129 313.606 310.828 313.606 309.515C313.606 312.167 312.553 314.71 310.679 316.585C308.804 318.461 306.262 319.515 303.61 319.515C306.262 319.516 308.804 320.57 310.679 322.445C312.553 324.321 313.606 326.864 313.606 329.515V329.515ZM240.33 132.593C240.33 129.941 241.383 127.397 243.259 125.521C245.134 123.645 247.677 122.591 250.33 122.589C249.017 122.59 247.716 122.332 246.503 121.829C245.29 121.327 244.187 120.591 243.259 119.663C242.33 118.735 241.593 117.632 241.091 116.419C240.588 115.206 240.33 113.906 240.33 112.593C240.33 115.245 239.277 117.788 237.402 119.663C235.528 121.538 232.985 122.592 230.334 122.593C232.985 122.594 235.528 123.648 237.402 125.523C239.277 127.399 240.33 129.942 240.33 132.593V132.593ZM160.505 256.662C164.366 256.662 164.372 250.662 160.505 250.662C156.644 250.662 156.638 256.662 160.505 256.662ZM220.025 186.119C223.886 186.119 223.892 180.119 220.025 180.119C216.164 180.119 216.158 186.119 220.025 186.119ZM154.666 181.724C158.527 181.724 158.533 175.724 154.666 175.724C150.805 175.724 150.799 181.724 154.666 181.724ZM343.306 112.604C347.167 112.604 347.173 106.604 343.306 106.604C339.445 106.604 339.439 112.604 343.306 112.604ZM423.946 236.444C427.807 236.444 427.813 230.444 423.946 230.444C420.085 230.444 420.079 236.444 423.946 236.444ZM482.986 147.164C486.847 147.164 486.853 141.164 482.986 141.164C479.125 141.164 479.119 147.164 482.986 147.164ZM364.906 199.004C368.767 199.004 368.773 193.004 364.906 193.004C361.045 193.004 361.039 199.004 364.906 199.004ZM418.186 134.204C422.047 134.204 422.053 128.204 418.186 128.204C414.325 128.204 414.319 134.204 418.186 134.204ZM139.746 335.908C143.607 335.908 143.613 329.908 139.746 329.908C135.886 329.908 135.879 335.908 139.746 335.908ZM383.626 289.724C387.487 289.724 387.493 283.724 383.626 283.724C379.765 283.724 379.759 289.724 383.626 289.724Z" fill="#D6D6D6"/>
<path d="M606.743 476.326H106.743V478.326H606.743V476.326Z" fill="#935B50"/>
<path d="M570.843 330.843H551.543L553.994 325.084H568.391L570.843 330.843Z" fill="#F65B2B"/>
<path d="M328.121 478.326L591.743 478.326C594.504 478.326 596.743 476.088 596.743 473.326V335.82C596.743 333.059 594.504 330.82 591.743 330.82H328.121C325.36 330.82 323.121 333.059 323.121 335.82V473.326C323.121 476.088 325.36 478.326 328.121 478.326Z" fill="#935B50"/>
<path d="M517.889 462.694H580.532C583.293 462.694 585.532 460.455 585.532 457.694V351.452C585.532 348.69 583.293 346.452 580.532 346.452H517.889C515.128 346.452 512.889 348.69 512.889 351.452V457.694C512.889 460.455 515.128 462.694 517.889 462.694Z" fill="#E19974"/>
<path d="M434.037 462.694H496.68C499.441 462.694 501.68 460.455 501.68 457.694V351.452C501.68 348.69 499.441 346.452 496.68 346.452H434.037C431.276 346.452 429.037 348.69 429.037 351.452V457.694C429.037 460.455 431.276 462.694 434.037 462.694Z" fill="#E19974"/>
<path d="M339.333 462.696H413.769C416.53 462.696 418.769 460.457 418.769 457.696V436.486C418.769 433.724 416.53 431.486 413.769 431.486H339.333C336.572 431.486 334.333 433.724 334.333 436.486V457.696C334.333 460.457 336.572 462.696 339.333 462.696Z" fill="#E19974"/>
<path d="M339.333 420.276H413.769C416.53 420.276 418.769 418.037 418.769 415.276V394.066C418.769 391.304 416.53 389.066 413.769 389.066H339.333C336.572 389.066 334.333 391.304 334.333 394.066V415.276C334.333 418.037 336.572 420.276 339.333 420.276Z" fill="#E19974"/>
<path d="M339.333 377.662H413.769C416.53 377.662 418.769 375.424 418.769 372.662V351.452C418.769 348.691 416.53 346.452 413.769 346.452H339.333C336.572 346.452 334.333 348.691 334.333 351.452V372.662C334.333 375.424 336.572 377.662 339.333 377.662Z" fill="#E19974"/>
<path d="M544.324 234.475H475.178V235.475H544.324V234.475Z" fill="#B02336"/>
<path d="M544.823 230.939H543.823V239.415H544.823V230.939Z" fill="#B02336"/>
<path d="M475.319 230.939H474.319V239.415H475.319V230.939Z" fill="#B02336"/>
<path d="M420.323 179.808H351.178V180.808H420.323V179.808Z" fill="#B02336"/>
<path d="M420.824 176.272H419.824V184.747H420.824V176.272Z" fill="#B02336"/>
<path d="M351.32 176.272H350.32V184.747H351.32V176.272Z" fill="#B02336"/>
<path d="M488.044 234.393C487.604 235.112 487.262 235.888 487.03 236.699C486.795 237.452 486.628 238.224 486.531 239.006C486.448 240.552 486.561 242.102 486.867 243.619C487.007 245.157 487.176 246.695 487.372 248.232C487.598 249.77 487.776 251.308 488.044 252.845C488.051 252.885 488.072 252.921 488.103 252.947C488.133 252.973 488.172 252.987 488.213 252.987C488.253 252.987 488.292 252.973 488.322 252.947C488.353 252.921 488.374 252.885 488.381 252.845C488.649 251.308 488.827 249.77 489.053 248.232C489.25 246.694 489.418 245.157 489.558 243.619C489.864 242.102 489.977 240.552 489.894 239.006C489.797 238.224 489.63 237.452 489.395 236.699C489.163 235.888 488.821 235.112 488.381 234.393C488.353 234.348 488.308 234.317 488.257 234.305C488.206 234.293 488.152 234.302 488.107 234.33C488.082 234.346 488.061 234.367 488.044 234.393V234.393ZM533.218 234.014C532.774 234.835 532.433 235.708 532.204 236.614C531.968 237.465 531.801 238.335 531.705 239.213C531.622 240.953 531.735 242.697 532.041 244.412C532.181 246.145 532.349 247.878 532.546 249.611C532.772 251.344 532.95 253.077 533.218 254.81C533.225 254.85 533.245 254.887 533.276 254.913C533.307 254.94 533.346 254.954 533.386 254.954C533.427 254.954 533.466 254.94 533.497 254.913C533.528 254.887 533.548 254.85 533.555 254.81C533.823 253.077 534.001 251.344 534.227 249.611C534.423 247.878 534.592 246.145 534.732 244.412C535.038 242.697 535.151 240.953 535.068 239.213C534.971 238.335 534.805 237.465 534.569 236.614C534.34 235.708 533.999 234.835 533.555 234.014C533.538 233.984 533.513 233.959 533.484 233.942C533.454 233.924 533.421 233.915 533.386 233.915C533.352 233.915 533.319 233.924 533.289 233.942C533.259 233.959 533.235 233.984 533.218 234.014V234.014ZM520.237 234.014C519.797 234.734 519.455 235.511 519.223 236.322C518.988 237.075 518.821 237.848 518.724 238.63C518.641 240.177 518.754 241.728 519.06 243.246C519.2 244.785 519.368 246.324 519.565 247.862C519.791 249.401 519.969 250.94 520.237 252.479C520.244 252.518 520.265 252.554 520.296 252.58C520.326 252.606 520.365 252.62 520.405 252.62C520.446 252.62 520.484 252.606 520.515 252.58C520.546 252.554 520.567 252.518 520.574 252.479C520.842 250.94 521.02 249.401 521.246 247.862C521.442 246.324 521.611 244.785 521.751 243.246C522.057 241.728 522.17 240.177 522.087 238.63C521.99 237.848 521.823 237.075 521.588 236.322C521.356 235.511 521.014 234.734 520.574 234.014C520.546 233.97 520.501 233.938 520.45 233.926C520.399 233.914 520.345 233.923 520.3 233.951C520.275 233.967 520.253 233.989 520.237 234.014V234.014ZM391.716 310.466C393.136 311.331 394.663 312.006 396.258 312.474C397.742 312.924 399.262 313.249 400.8 313.444C402.309 313.639 403.837 313.628 405.343 313.411C406.857 313.187 408.371 312.924 409.885 312.782L414.427 312.336L418.969 311.789C421.998 311.384 425.026 310.989 428.054 310.466C428.132 310.452 428.203 310.412 428.254 310.351C428.305 310.291 428.333 310.214 428.333 310.135C428.333 310.056 428.305 309.979 428.254 309.919C428.203 309.858 428.132 309.817 428.054 309.804C425.026 309.281 421.998 308.886 418.969 308.48L414.427 307.934L409.885 307.487C408.371 307.346 406.857 307.083 405.343 306.859C403.837 306.642 402.309 306.631 400.8 306.826C399.262 307.021 397.742 307.346 396.258 307.796C394.663 308.264 393.136 308.939 391.716 309.804C391.628 309.859 391.566 309.946 391.543 310.047C391.519 310.148 391.537 310.254 391.592 310.342C391.624 310.392 391.666 310.434 391.716 310.466V310.466ZM412.303 178.509C411.416 180.167 410.731 181.925 410.262 183.746C409.803 185.464 409.474 187.215 409.276 188.982C409.078 190.723 409.09 192.481 409.31 194.219C409.537 195.965 409.805 197.71 409.949 199.456L410.403 204.692L410.958 209.929C411.37 213.42 411.771 216.911 412.303 220.402C412.315 220.482 412.356 220.556 412.418 220.608C412.479 220.661 412.558 220.691 412.639 220.691C412.721 220.691 412.799 220.661 412.861 220.608C412.923 220.556 412.963 220.482 412.976 220.402C413.507 216.911 413.909 213.42 414.321 209.929L414.876 204.692L415.33 199.456C415.473 197.71 415.741 195.965 415.969 194.219C416.189 192.481 416.2 190.723 416.002 188.982C415.805 187.215 415.475 185.464 415.016 183.746C414.548 181.925 413.863 180.167 412.976 178.509C412.942 178.449 412.894 178.399 412.834 178.364C412.775 178.329 412.708 178.311 412.639 178.311C412.571 178.311 412.503 178.329 412.444 178.364C412.385 178.399 412.336 178.449 412.303 178.509V178.509ZM356.236 195.979L360.531 194.688C360.307 193.944 360.193 193.172 360.192 192.395C360.191 191.361 360.394 190.337 360.788 189.382C361.183 188.426 361.762 187.558 362.493 186.827C363.223 186.096 364.091 185.515 365.046 185.12C366.001 184.724 367.024 184.52 368.058 184.52C369.092 184.52 370.115 184.724 371.07 185.12C372.025 185.515 372.893 186.096 373.623 186.827C374.354 187.558 374.933 188.426 375.328 189.382C375.722 190.337 375.925 191.361 375.924 192.395C375.923 193.172 375.809 193.944 375.585 194.688L379.88 195.979C380.438 194.134 380.556 192.184 380.225 190.286C379.894 188.387 379.123 186.592 377.974 185.044C376.825 183.497 375.33 182.239 373.608 181.373C371.886 180.507 369.985 180.056 368.058 180.056C366.131 180.056 364.23 180.507 362.508 181.373C360.786 182.239 359.291 183.497 358.142 185.044C356.993 186.592 356.222 188.387 355.891 190.286C355.56 192.184 355.678 194.134 356.236 195.979V195.979ZM368.062 252.298C369.978 252.296 371.867 251.848 373.58 250.991C375.293 250.134 376.783 248.89 377.933 247.358C379.083 245.826 379.861 244.048 380.206 242.164C380.551 240.28 380.453 238.341 379.921 236.501L375.616 237.759C375.952 238.93 376.012 240.163 375.79 241.361C375.568 242.559 375.07 243.689 374.337 244.662C373.603 245.635 372.654 246.424 371.563 246.968C370.473 247.511 369.271 247.793 368.052 247.793C366.834 247.792 365.632 247.508 364.542 246.964C363.452 246.419 362.504 245.629 361.771 244.655C361.039 243.681 360.543 242.551 360.322 241.352C360.102 240.154 360.162 238.921 360.5 237.75L356.195 236.492C355.662 238.333 355.565 240.273 355.91 242.158C356.256 244.044 357.035 245.823 358.185 247.356C359.336 248.889 360.828 250.133 362.542 250.991C364.256 251.848 366.146 252.296 368.062 252.298V252.298Z" fill="#E19974"/>
<path d="M520.602 330.819H417.287V327.102C417.287 326.571 417.498 326.062 417.873 325.687C418.248 325.312 418.757 325.102 419.287 325.102H518.602C519.132 325.102 519.641 325.312 520.016 325.687C520.391 326.062 520.602 326.571 520.602 327.102V330.819Z" fill="#C6C6C6"/>
<path d="M509.976 325.103H486.569V322.253C486.569 321.723 486.78 321.214 487.155 320.839C487.53 320.464 488.038 320.253 488.569 320.253H507.976C508.507 320.253 509.015 320.464 509.39 320.839C509.765 321.214 509.976 321.723 509.976 322.253V325.103Z" fill="#A0A0A0"/>
<path d="M427.154 325.103H450.561V320.254H427.154V325.103Z" fill="#A0A0A0"/>
<path d="M529.582 410.054C532.609 410.054 535.063 407.6 535.063 404.573C535.063 401.546 532.609 399.092 529.582 399.092C526.555 399.092 524.101 401.546 524.101 404.573C524.101 407.6 526.555 410.054 529.582 410.054Z" fill="#935B50"/>
<path d="M484.988 410.054C488.015 410.054 490.469 407.6 490.469 404.573C490.469 401.546 488.015 399.092 484.988 399.092C481.961 399.092 479.507 401.546 479.507 404.573C479.507 407.6 481.961 410.054 484.988 410.054Z" fill="#935B50"/>
<path d="M376.55 367.538C379.577 367.538 382.031 365.084 382.031 362.057C382.031 359.03 379.577 356.576 376.55 356.576C373.523 356.576 371.069 359.03 371.069 362.057C371.069 365.084 373.523 367.538 376.55 367.538Z" fill="#935B50"/>
<path d="M376.55 410.138C379.577 410.138 382.031 407.684 382.031 404.657C382.031 401.63 379.577 399.176 376.55 399.176C373.523 399.176 371.069 401.63 371.069 404.657C371.069 407.684 373.523 410.138 376.55 410.138Z" fill="#935B50"/>
<path d="M376.55 452.737C379.577 452.737 382.031 450.283 382.031 447.256C382.031 444.229 379.577 441.775 376.55 441.775C373.523 441.775 371.069 444.229 371.069 447.256C371.069 450.283 373.523 452.737 376.55 452.737Z" fill="#935B50"/>
<path d="M412.639 251.74C424.388 251.74 433.913 242.215 433.913 230.466C433.913 218.717 424.388 209.192 412.639 209.192C400.89 209.192 391.365 218.717 391.365 230.466C391.365 242.215 400.89 251.74 412.639 251.74Z" fill="#C6C6C6"/>
<path d="M368.06 241.096C381.789 241.096 392.919 229.966 392.919 216.237C392.919 202.508 381.789 191.378 368.06 191.378C354.331 191.378 343.201 202.508 343.201 216.237C343.201 229.966 354.331 241.096 368.06 241.096Z" fill="#C6C6C6"/>
<path d="M368.06 230.042C375.684 230.042 381.865 223.861 381.865 216.237C381.865 208.613 375.684 202.432 368.06 202.432C360.436 202.432 354.255 208.613 354.255 216.237C354.255 223.861 360.436 230.042 368.06 230.042Z" fill="#A0A0A0"/>
<path d="M412.639 243.847C420.263 243.847 426.444 237.666 426.444 230.042C426.444 222.418 420.263 216.237 412.639 216.237C405.015 216.237 398.834 222.418 398.834 230.042C398.834 237.666 405.015 243.847 412.639 243.847Z" fill="#A0A0A0"/>
<path d="M493.176 245.498V264.779L488.088 262.429C486.579 261.732 485.313 260.599 484.452 259.177C483.592 257.754 483.177 256.107 483.26 254.446C483.343 252.786 483.921 251.188 484.92 249.859C485.918 248.53 487.291 247.529 488.863 246.987L493.176 245.498Z" fill="#C6C6C6"/>
<path d="M502.624 235.068C502.184 235.787 501.842 236.563 501.61 237.374C501.375 238.127 501.208 238.899 501.111 239.681C501.028 241.227 501.141 242.777 501.447 244.294C501.587 245.832 501.756 247.369 501.952 248.907C502.178 250.445 502.356 251.983 502.624 253.52C502.631 253.56 502.652 253.596 502.683 253.622C502.713 253.647 502.752 253.662 502.792 253.662C502.833 253.662 502.872 253.647 502.902 253.622C502.933 253.596 502.954 253.56 502.961 253.52C503.229 251.983 503.407 250.445 503.633 248.907C503.829 247.369 503.998 245.832 504.138 244.294C504.444 242.777 504.557 241.227 504.474 239.681C504.377 238.899 504.21 238.127 503.975 237.374C503.743 236.563 503.401 235.787 502.961 235.068C502.933 235.023 502.888 234.991 502.837 234.98C502.786 234.968 502.732 234.977 502.687 235.005C502.662 235.021 502.64 235.042 502.624 235.068V235.068Z" fill="#E19974"/>
<path d="M507.756 246.173V265.454L502.668 263.104C501.159 262.407 499.893 261.274 499.032 259.852C498.172 258.429 497.757 256.782 497.84 255.121C497.923 253.461 498.501 251.863 499.5 250.534C500.498 249.205 501.871 248.204 503.443 247.662L507.756 246.173ZM529.744 272.541L531.713 271.857C534.142 271.014 536.247 269.436 537.737 267.341C539.227 265.246 540.028 262.74 540.028 260.169V260.169C540.028 257.598 539.227 255.092 537.737 252.997C536.247 250.902 534.142 249.324 531.713 248.48L529.744 247.797V272.541ZM517.92 269.105L524.203 266.923C524.596 266.787 524.936 266.532 525.177 266.193C525.418 265.855 525.547 265.45 525.547 265.034V250.276C525.547 249.861 525.418 249.456 525.177 249.117C524.936 248.779 524.596 248.523 524.203 248.387L517.92 246.205C517.618 246.101 517.296 246.07 516.981 246.115C516.665 246.16 516.364 246.28 516.104 246.465C515.845 246.65 515.633 246.894 515.486 247.178C515.34 247.461 515.264 247.776 515.264 248.095V267.216C515.264 267.535 515.34 267.849 515.486 268.133C515.633 268.416 515.845 268.661 516.104 268.845C516.364 269.03 516.665 269.15 516.981 269.196C517.296 269.241 517.618 269.21 517.92 269.105V269.105ZM461.668 302.672L456.03 318.909C455.894 319.302 455.639 319.642 455.3 319.883C454.962 320.124 454.556 320.253 454.141 320.253H422.344C421.928 320.253 421.523 320.124 421.184 319.883C420.846 319.642 420.591 319.302 420.454 318.909L414.816 302.672C414.712 302.37 414.681 302.048 414.726 301.733C414.771 301.417 414.891 301.116 415.076 300.856C415.261 300.597 415.505 300.385 415.789 300.238C416.072 300.092 416.387 300.016 416.706 300.016H459.779C460.098 300.016 460.412 300.092 460.696 300.238C460.979 300.385 461.224 300.597 461.409 300.856C461.594 301.116 461.714 301.417 461.759 301.733C461.804 302.048 461.773 302.37 461.668 302.672V302.672Z" fill="#C6C6C6"/>
<path d="M419.082 303.739C419.898 305.91 421.008 307.958 422.381 309.825C423.745 311.662 425.385 313.277 427.244 314.61C428.163 315.286 429.14 315.879 430.163 316.382C431.183 316.901 432.241 317.341 433.328 317.697C434.42 318.065 435.54 318.346 436.676 318.535C437.821 318.747 438.979 318.878 440.142 318.928C438.972 319.072 437.792 319.103 436.616 319.022C435.434 318.923 434.262 318.727 433.112 318.436C428.431 317.238 424.374 314.319 421.752 310.261C421.114 309.261 420.559 308.21 420.095 307.118C419.649 306.027 419.31 304.896 419.082 303.739V303.739ZM425.189 301.322C425.753 302.988 426.552 304.563 427.564 306.001C428.555 307.411 429.781 308.642 431.187 309.639C432.586 310.646 434.144 311.41 435.798 311.897C437.484 312.396 439.232 312.654 440.991 312.662C438.286 313.215 435.477 312.912 432.954 311.794C430.43 310.676 428.318 308.799 426.911 306.424C425.978 304.867 425.391 303.127 425.189 301.322V301.322Z" fill="#A0A0A0"/>
<path d="M344.743 324.274C344.743 324.274 363.463 304.654 382.903 321.754L344.743 324.274Z" fill="#D8A935"/>
<path d="M381.533 330.82H347.183L337.183 320.253H391.533L381.533 330.82Z" fill="#C6C6C6"/>
<path d="M375.262 300.217C375.869 300.51 376.376 300.977 376.718 301.558C376.88 301.871 376.974 302.214 376.993 302.565C377.011 302.917 376.955 303.268 376.827 303.596C376.572 304.218 376.245 304.808 375.853 305.354C375.662 305.636 375.447 305.901 375.211 306.147C374.989 306.361 374.793 306.6 374.628 306.861C374.279 307.376 374.017 307.945 373.854 308.546C373.716 309.145 373.724 309.769 373.878 310.364C374.033 310.98 374.345 311.545 374.785 312.002C375.225 312.46 375.776 312.795 376.385 312.974C375.718 312.888 375.09 312.613 374.575 312.182C374.056 311.729 373.67 311.142 373.46 310.486C373.237 309.825 373.2 309.115 373.35 308.433C373.51 307.766 373.781 307.131 374.152 306.554C374.345 306.267 374.57 306.004 374.823 305.769C375.046 305.55 375.249 305.312 375.431 305.058C375.806 304.546 376.137 304.004 376.422 303.437C376.556 303.164 376.629 302.866 376.636 302.562C376.644 302.259 376.587 301.957 376.469 301.677C376.204 301.091 375.788 300.587 375.262 300.217V300.217ZM365.578 288.564C366.185 288.858 366.691 289.325 367.033 289.906C367.196 290.218 367.289 290.562 367.308 290.913C367.327 291.264 367.27 291.616 367.142 291.943C366.887 292.566 366.561 293.156 366.168 293.702C365.977 293.984 365.762 294.249 365.526 294.495C365.304 294.709 365.109 294.948 364.943 295.208C364.594 295.724 364.332 296.293 364.169 296.894C364.031 297.493 364.04 298.117 364.194 298.712C364.348 299.328 364.661 299.892 365.1 300.35C365.54 300.808 366.091 301.143 366.7 301.322C366.034 301.236 365.405 300.961 364.89 300.53C364.371 300.077 363.985 299.49 363.775 298.834C363.553 298.172 363.515 297.463 363.666 296.781C363.825 296.114 364.096 295.479 364.467 294.902C364.66 294.615 364.885 294.352 365.139 294.117C365.361 293.898 365.565 293.66 365.746 293.406C366.121 292.894 366.452 292.352 366.738 291.785C366.871 291.512 366.944 291.214 366.952 290.91C366.96 290.606 366.903 290.305 366.784 290.025C366.52 289.439 366.103 288.935 365.578 288.564V288.564ZM355.233 297.361C355.84 297.654 356.346 298.121 356.688 298.702C356.851 299.015 356.944 299.358 356.963 299.709C356.982 300.061 356.925 300.412 356.797 300.74C356.542 301.362 356.216 301.952 355.823 302.498C355.632 302.78 355.417 303.045 355.181 303.291C354.959 303.505 354.764 303.744 354.598 304.005C354.249 304.52 353.987 305.089 353.824 305.69C353.686 306.289 353.695 306.913 353.849 307.508C354.003 308.124 354.316 308.689 354.755 309.146C355.195 309.604 355.746 309.939 356.355 310.119C355.689 310.032 355.06 309.757 354.545 309.326C354.026 308.873 353.64 308.287 353.43 307.63C353.208 306.969 353.17 306.259 353.321 305.577C353.48 304.91 353.751 304.275 354.122 303.698C354.315 303.411 354.54 303.148 354.794 302.913C355.016 302.694 355.22 302.456 355.401 302.202C355.776 301.69 356.108 301.148 356.393 300.581C356.526 300.308 356.599 300.01 356.607 299.706C356.615 299.402 356.558 299.101 356.439 298.821C356.175 298.235 355.758 297.731 355.233 297.361V297.361Z" fill="#BABABA"/>
<path d="M534.323 299.913H587.279V299.982C587.279 307.004 584.489 313.739 579.524 318.704C574.558 323.67 567.824 326.459 560.801 326.459H560.801C553.779 326.459 547.044 323.67 542.079 318.704C537.113 313.739 534.324 307.004 534.324 299.982V299.913H534.323Z" fill="#7CA1B1"/>
<path d="M512.89 177.994L534.035 182.69L534.029 182.717C533.721 184.105 533.142 185.419 532.326 186.584C531.51 187.749 530.472 188.741 529.272 189.505C528.073 190.269 526.734 190.789 525.334 191.035C523.933 191.282 522.497 191.25 521.109 190.942V190.942C518.305 190.319 515.863 188.608 514.321 186.185C512.778 183.762 512.262 180.826 512.884 178.022L512.89 177.994L512.89 177.994Z" fill="#7CA1B1"/>
<path d="M512.789 188.836L534.274 186.087L534.277 186.115C534.642 188.964 533.86 191.841 532.103 194.114C530.346 196.386 527.759 197.867 524.91 198.232V198.232C523.499 198.413 522.066 198.313 520.694 197.94C519.322 197.567 518.036 196.928 516.911 196.058C515.786 195.188 514.843 194.105 514.136 192.871C513.43 191.636 512.973 190.275 512.793 188.864L512.789 188.836V188.836Z" fill="#F65B2B"/>
<path d="M528.294 206.368H520.4L521.403 204.012H527.291L528.294 206.368Z" fill="#FFBA55"/>
<path d="M513.357 193.93H535.016V193.958C535.016 196.831 533.875 199.585 531.844 201.616C529.813 203.647 527.059 204.788 524.187 204.788C522.764 204.788 521.356 204.508 520.042 203.964C518.728 203.42 517.534 202.622 516.529 201.616C515.523 200.61 514.725 199.417 514.181 198.103C513.637 196.789 513.357 195.38 513.357 193.958V193.93Z" fill="#7CA1B1"/>
<path d="M541.557 170.686L568.148 176.591L568.14 176.625C567.357 180.152 565.205 183.222 562.158 185.162C559.111 187.102 555.418 187.752 551.892 186.968V186.968C548.366 186.185 545.295 184.034 543.356 180.987C541.416 177.94 540.766 174.247 541.549 170.721L541.557 170.686L541.557 170.686Z" fill="#7CA1B1"/>
<path d="M541.429 184.321L568.448 180.863L568.452 180.899C568.679 182.673 568.555 184.474 568.086 186.2C567.616 187.926 566.812 189.542 565.718 190.957C564.624 192.372 563.262 193.558 561.71 194.447C560.158 195.335 558.446 195.909 556.672 196.136C554.898 196.363 553.096 196.239 551.37 195.77C549.644 195.3 548.028 194.496 546.613 193.402C545.198 192.308 544.012 190.946 543.124 189.394C542.235 187.842 541.661 186.13 541.434 184.356L541.429 184.321V184.321Z" fill="#F65B2B"/>
<path d="M560.928 206.368H551L552.262 203.406H559.667L560.928 206.368Z" fill="#FFBA55"/>
<path d="M542.143 190.727H569.382V190.762C569.382 192.55 569.03 194.321 568.345 195.974C567.661 197.626 566.658 199.128 565.393 200.392C564.128 201.657 562.627 202.66 560.975 203.345C559.322 204.029 557.551 204.381 555.763 204.381V204.381C553.974 204.381 552.203 204.029 550.551 203.345C548.898 202.66 547.397 201.657 546.132 200.392C544.868 199.128 543.864 197.626 543.18 195.974C542.496 194.321 542.143 192.55 542.143 190.762V190.727V190.727Z" fill="#7CA1B1"/>
<path d="M588.426 300.893H533.176C532.916 300.893 532.668 300.789 532.485 300.605C532.301 300.421 532.198 300.172 532.198 299.913C532.198 299.653 532.301 299.404 532.485 299.22C532.668 299.037 532.916 298.933 533.176 298.932H588.426C588.686 298.933 588.934 299.037 589.118 299.22C589.301 299.404 589.404 299.653 589.404 299.913C589.404 300.172 589.301 300.421 589.118 300.605C588.934 300.789 588.686 300.893 588.426 300.893V300.893Z" fill="#F65B2B"/>
<path d="M537.501 304.925C537.61 304.921 537.714 304.875 537.791 304.796C537.867 304.717 537.909 304.612 537.909 304.502C537.909 304.392 537.867 304.287 537.791 304.208C537.714 304.129 537.61 304.083 537.501 304.079C537.391 304.083 537.287 304.129 537.211 304.208C537.135 304.287 537.092 304.392 537.092 304.502C537.092 304.612 537.135 304.717 537.211 304.796C537.287 304.875 537.391 304.921 537.501 304.925ZM544.562 304.572C544.671 304.568 544.775 304.522 544.851 304.443C544.927 304.364 544.97 304.259 544.97 304.149C544.97 304.039 544.927 303.934 544.851 303.855C544.775 303.776 544.671 303.73 544.562 303.726C544.452 303.73 544.348 303.776 544.272 303.855C544.196 303.934 544.153 304.039 544.153 304.149C544.153 304.259 544.196 304.364 544.272 304.443C544.348 304.522 544.452 304.568 544.562 304.572V304.572ZM551.269 304.925C551.379 304.921 551.483 304.875 551.559 304.796C551.635 304.717 551.678 304.612 551.678 304.502C551.678 304.392 551.635 304.287 551.559 304.208C551.483 304.129 551.379 304.083 551.269 304.079C551.16 304.083 551.056 304.129 550.979 304.208C550.903 304.287 550.861 304.392 550.861 304.502C550.861 304.612 550.903 304.717 550.979 304.796C551.056 304.875 551.16 304.921 551.269 304.925ZM557.624 304.749C557.733 304.745 557.837 304.699 557.914 304.62C557.99 304.541 558.032 304.435 558.032 304.326C558.032 304.216 557.99 304.11 557.914 304.032C557.837 303.953 557.733 303.906 557.624 303.903C557.514 303.906 557.41 303.953 557.334 304.032C557.258 304.11 557.215 304.216 557.215 304.326C557.215 304.435 557.258 304.541 557.334 304.62C557.41 304.699 557.514 304.745 557.624 304.749V304.749ZM564.155 304.749C564.265 304.745 564.368 304.699 564.445 304.62C564.521 304.541 564.564 304.435 564.564 304.326C564.564 304.216 564.521 304.11 564.445 304.032C564.368 303.953 564.265 303.906 564.155 303.903C564.045 303.906 563.942 303.953 563.865 304.032C563.789 304.11 563.746 304.216 563.746 304.326C563.746 304.435 563.789 304.541 563.865 304.62C563.942 304.699 564.045 304.745 564.155 304.749V304.749ZM570.51 304.749C570.619 304.745 570.723 304.699 570.799 304.62C570.876 304.541 570.918 304.435 570.918 304.326C570.918 304.216 570.876 304.11 570.799 304.032C570.723 303.953 570.619 303.906 570.51 303.903C570.4 303.906 570.296 303.953 570.22 304.032C570.144 304.11 570.101 304.216 570.101 304.326C570.101 304.435 570.144 304.541 570.22 304.62C570.296 304.699 570.4 304.745 570.51 304.749V304.749ZM577.041 304.749C577.15 304.745 577.254 304.699 577.331 304.62C577.407 304.541 577.449 304.435 577.449 304.326C577.449 304.216 577.407 304.11 577.331 304.032C577.254 303.953 577.15 303.906 577.041 303.903C576.931 303.906 576.827 303.953 576.751 304.032C576.675 304.11 576.632 304.216 576.632 304.326C576.632 304.435 576.675 304.541 576.751 304.62C576.827 304.699 576.931 304.745 577.041 304.749V304.749ZM583.748 304.749C583.858 304.745 583.962 304.699 584.038 304.62C584.114 304.541 584.157 304.435 584.157 304.326C584.157 304.216 584.114 304.11 584.038 304.032C583.962 303.953 583.858 303.906 583.748 303.903C583.639 303.906 583.535 303.953 583.459 304.032C583.383 304.11 583.34 304.216 583.34 304.326C583.34 304.435 583.383 304.541 583.459 304.62C583.535 304.699 583.639 304.745 583.748 304.749V304.749ZM541.208 308.691C541.317 308.687 541.421 308.641 541.497 308.562C541.574 308.483 541.616 308.378 541.616 308.268C541.616 308.158 541.574 308.053 541.497 307.974C541.421 307.895 541.317 307.849 541.208 307.845C541.098 307.849 540.994 307.895 540.918 307.974C540.842 308.053 540.799 308.158 540.799 308.268C540.799 308.378 540.842 308.483 540.918 308.562C540.994 308.641 541.098 308.687 541.208 308.691V308.691ZM547.68 308.573C547.79 308.569 547.894 308.523 547.97 308.444C548.046 308.365 548.089 308.26 548.089 308.15C548.089 308.04 548.046 307.935 547.97 307.856C547.894 307.777 547.79 307.731 547.68 307.727C547.57 307.731 547.467 307.777 547.39 307.856C547.314 307.935 547.272 308.04 547.272 308.15C547.272 308.26 547.314 308.365 547.39 308.444C547.467 308.523 547.57 308.569 547.68 308.573V308.573ZM554.505 308.455C554.615 308.452 554.719 308.405 554.795 308.326C554.871 308.248 554.914 308.142 554.914 308.032C554.914 307.923 554.871 307.817 554.795 307.738C554.719 307.659 554.615 307.613 554.505 307.609C554.396 307.613 554.292 307.659 554.216 307.738C554.139 307.817 554.097 307.923 554.097 308.032C554.097 308.142 554.139 308.248 554.216 308.326C554.292 308.405 554.396 308.452 554.505 308.455ZM560.742 308.338C560.852 308.334 560.956 308.288 561.032 308.209C561.108 308.13 561.151 308.024 561.151 307.915C561.151 307.805 561.108 307.7 561.032 307.621C560.956 307.542 560.852 307.496 560.742 307.492C560.633 307.496 560.529 307.542 560.453 307.621C560.376 307.7 560.334 307.805 560.334 307.915C560.334 308.024 560.376 308.13 560.453 308.209C560.529 308.288 560.633 308.334 560.742 308.338ZM567.097 308.338C567.207 308.334 567.31 308.288 567.387 308.209C567.463 308.13 567.505 308.024 567.505 307.915C567.505 307.805 567.463 307.7 567.387 307.621C567.31 307.542 567.207 307.496 567.097 307.492C566.987 307.496 566.883 307.542 566.807 307.621C566.731 307.7 566.688 307.805 566.688 307.915C566.688 308.024 566.731 308.13 566.807 308.209C566.883 308.288 566.987 308.334 567.097 308.338ZM573.922 308.338C574.032 308.334 574.136 308.288 574.212 308.209C574.288 308.13 574.331 308.024 574.331 307.915C574.331 307.805 574.288 307.7 574.212 307.621C574.136 307.542 574.032 307.496 573.922 307.492C573.813 307.496 573.709 307.542 573.633 307.621C573.556 307.7 573.514 307.805 573.514 307.915C573.514 308.024 573.556 308.13 573.633 308.209C573.709 308.288 573.813 308.334 573.922 308.338ZM580.512 308.455C580.622 308.452 580.726 308.405 580.802 308.326C580.878 308.248 580.921 308.142 580.921 308.032C580.921 307.923 580.878 307.817 580.802 307.738C580.726 307.659 580.622 307.613 580.512 307.609C580.403 307.613 580.299 307.659 580.223 307.738C580.146 307.817 580.104 307.923 580.104 308.032C580.104 308.142 580.146 308.248 580.223 308.326C580.299 308.405 580.403 308.452 580.512 308.455ZM544.267 312.103C544.377 312.1 544.481 312.053 544.557 311.974C544.633 311.896 544.676 311.79 544.676 311.68C544.676 311.571 544.633 311.465 544.557 311.386C544.481 311.308 544.377 311.261 544.267 311.258C544.158 311.261 544.054 311.308 543.978 311.386C543.901 311.465 543.859 311.571 543.859 311.68C543.859 311.79 543.901 311.896 543.978 311.974C544.054 312.053 544.158 312.1 544.267 312.103V312.103ZM551.21 311.986C551.32 311.982 551.424 311.936 551.5 311.857C551.576 311.778 551.619 311.673 551.619 311.563C551.619 311.453 551.576 311.348 551.5 311.269C551.424 311.19 551.32 311.144 551.21 311.14C551.101 311.144 550.997 311.19 550.921 311.269C550.844 311.348 550.802 311.453 550.802 311.563C550.802 311.673 550.844 311.778 550.921 311.857C550.997 311.936 551.101 311.982 551.21 311.986V311.986ZM547.798 315.634C547.907 315.63 548.011 315.584 548.087 315.505C548.164 315.426 548.206 315.321 548.206 315.211C548.206 315.101 548.164 314.996 548.087 314.917C548.011 314.838 547.907 314.792 547.798 314.788C547.688 314.792 547.584 314.838 547.508 314.917C547.432 314.996 547.389 315.101 547.389 315.211C547.389 315.321 547.432 315.426 547.508 315.505C547.584 315.584 547.688 315.63 547.798 315.634ZM550.975 319.635C551.085 319.631 551.189 319.585 551.265 319.506C551.341 319.427 551.384 319.322 551.384 319.212C551.384 319.102 551.341 318.997 551.265 318.918C551.189 318.839 551.085 318.793 550.975 318.789C550.865 318.793 550.762 318.839 550.685 318.918C550.609 318.997 550.567 319.102 550.567 319.212C550.567 319.322 550.609 319.427 550.685 319.506C550.762 319.585 550.865 319.631 550.975 319.635V319.635ZM554.505 323.401C554.615 323.397 554.719 323.351 554.795 323.272C554.871 323.193 554.914 323.087 554.914 322.978C554.914 322.868 554.871 322.762 554.795 322.684C554.719 322.605 554.615 322.558 554.505 322.555C554.396 322.558 554.292 322.605 554.216 322.684C554.139 322.762 554.097 322.868 554.097 322.978C554.097 323.087 554.139 323.193 554.216 323.272C554.292 323.351 554.396 323.397 554.505 323.401V323.401ZM557.683 319.282C557.792 319.278 557.896 319.232 557.972 319.153C558.049 319.074 558.091 318.969 558.091 318.859C558.091 318.749 558.049 318.644 557.972 318.565C557.896 318.486 557.792 318.44 557.683 318.436C557.573 318.44 557.469 318.486 557.393 318.565C557.317 318.644 557.274 318.749 557.274 318.859C557.274 318.969 557.317 319.074 557.393 319.153C557.469 319.232 557.573 319.278 557.683 319.282ZM560.86 323.165C560.97 323.161 561.074 323.115 561.15 323.036C561.226 322.957 561.269 322.852 561.269 322.742C561.269 322.633 561.226 322.527 561.15 322.448C561.074 322.369 560.97 322.323 560.86 322.319C560.75 322.323 560.646 322.369 560.57 322.448C560.494 322.527 560.451 322.633 560.451 322.742C560.451 322.852 560.494 322.957 560.57 323.036C560.646 323.115 560.75 323.161 560.86 323.165V323.165ZM564.155 319.4C564.265 319.396 564.368 319.349 564.445 319.271C564.521 319.192 564.564 319.086 564.564 318.977C564.564 318.867 564.521 318.761 564.445 318.682C564.368 318.604 564.265 318.557 564.155 318.554C564.045 318.557 563.942 318.604 563.865 318.682C563.789 318.761 563.746 318.867 563.746 318.977C563.746 319.086 563.789 319.192 563.865 319.271C563.942 319.349 564.045 319.396 564.155 319.4V319.4ZM567.568 323.401C567.677 323.397 567.781 323.351 567.857 323.272C567.934 323.193 567.976 323.087 567.976 322.978C567.976 322.868 567.934 322.762 567.857 322.684C567.781 322.605 567.677 322.558 567.568 322.555C567.458 322.558 567.354 322.605 567.278 322.684C567.202 322.762 567.159 322.868 567.159 322.978C567.159 323.087 567.202 323.193 567.278 323.272C567.354 323.351 567.458 323.397 567.568 323.401V323.401ZM570.98 319.282C571.09 319.278 571.194 319.232 571.27 319.153C571.346 319.074 571.389 318.969 571.389 318.859C571.389 318.749 571.346 318.644 571.27 318.565C571.194 318.486 571.09 318.44 570.98 318.436C570.871 318.44 570.767 318.486 570.691 318.565C570.614 318.644 570.572 318.749 570.572 318.859C570.572 318.969 570.614 319.074 570.691 319.153C570.767 319.232 570.871 319.278 570.98 319.282ZM574.04 315.751C574.15 315.748 574.253 315.701 574.33 315.623C574.406 315.544 574.449 315.438 574.449 315.328C574.449 315.219 574.406 315.113 574.33 315.034C574.253 314.956 574.15 314.909 574.04 314.906C573.93 314.909 573.826 314.956 573.75 315.034C573.674 315.113 573.631 315.219 573.631 315.328C573.631 315.438 573.674 315.544 573.75 315.623C573.826 315.701 573.93 315.748 574.04 315.751ZM577.453 311.75C577.562 311.747 577.666 311.7 577.742 311.621C577.819 311.543 577.861 311.437 577.861 311.327C577.861 311.218 577.819 311.112 577.742 311.033C577.666 310.955 577.562 310.908 577.453 310.904C577.343 310.908 577.239 310.955 577.163 311.033C577.087 311.112 577.044 311.218 577.044 311.327C577.044 311.437 577.087 311.543 577.163 311.621C577.239 311.7 577.343 311.747 577.453 311.75ZM570.51 311.633C570.619 311.629 570.723 311.583 570.799 311.504C570.876 311.425 570.918 311.319 570.918 311.21C570.918 311.1 570.876 310.995 570.799 310.916C570.723 310.837 570.619 310.791 570.51 310.787C570.4 310.791 570.296 310.837 570.22 310.916C570.144 310.995 570.101 311.1 570.101 311.21C570.101 311.319 570.144 311.425 570.22 311.504C570.296 311.583 570.4 311.629 570.51 311.633ZM567.215 316.104C567.324 316.101 567.428 316.054 567.504 315.976C567.581 315.897 567.623 315.791 567.623 315.682C567.623 315.572 567.581 315.466 567.504 315.388C567.428 315.309 567.324 315.262 567.215 315.259C567.105 315.262 567.001 315.309 566.925 315.388C566.849 315.466 566.806 315.572 566.806 315.682C566.806 315.791 566.849 315.897 566.925 315.976C567.001 316.054 567.105 316.101 567.215 316.104V316.104ZM563.92 311.986C564.029 311.982 564.133 311.936 564.209 311.857C564.286 311.778 564.328 311.673 564.328 311.563C564.328 311.453 564.286 311.348 564.209 311.269C564.133 311.19 564.029 311.144 563.92 311.14C563.81 311.144 563.706 311.19 563.63 311.269C563.554 311.348 563.511 311.453 563.511 311.563C563.511 311.673 563.554 311.778 563.63 311.857C563.706 311.936 563.81 311.982 563.92 311.986V311.986ZM560.742 315.869C560.852 315.865 560.956 315.819 561.032 315.74C561.108 315.661 561.151 315.556 561.151 315.446C561.151 315.336 561.108 315.231 561.032 315.152C560.956 315.073 560.852 315.027 560.742 315.023C560.633 315.027 560.529 315.073 560.453 315.152C560.376 315.231 560.334 315.336 560.334 315.446C560.334 315.556 560.376 315.661 560.453 315.74C560.529 315.819 560.633 315.865 560.742 315.869ZM557.565 311.75C557.675 311.747 557.779 311.7 557.855 311.621C557.931 311.543 557.974 311.437 557.974 311.327C557.974 311.218 557.931 311.112 557.855 311.033C557.779 310.955 557.675 310.908 557.565 310.904C557.455 310.908 557.351 310.955 557.275 311.033C557.199 311.112 557.156 311.218 557.156 311.327C557.156 311.437 557.199 311.543 557.275 311.621C557.351 311.7 557.455 311.747 557.565 311.75ZM554.388 315.516C554.497 315.512 554.601 315.466 554.677 315.387C554.754 315.308 554.796 315.203 554.796 315.093C554.796 314.983 554.754 314.878 554.677 314.799C554.601 314.72 554.497 314.674 554.388 314.67C554.278 314.674 554.174 314.72 554.098 314.799C554.022 314.878 553.979 314.983 553.979 315.093C553.979 315.203 554.022 315.308 554.098 315.387C554.174 315.466 554.278 315.512 554.388 315.516V315.516Z" fill="white"/>
<path d="M504.353 284.38H492.392C492.245 284.38 492.098 284.351 491.962 284.295C491.825 284.238 491.701 284.155 491.596 284.051C491.492 283.946 491.409 283.822 491.352 283.685C491.296 283.549 491.267 283.402 491.267 283.254V279.941C491.268 279.046 491.624 278.187 492.257 277.554C492.89 276.921 493.749 276.565 494.644 276.564H502.102C502.997 276.565 503.856 276.921 504.489 277.554C505.122 278.187 505.478 279.046 505.479 279.941V283.254C505.479 283.402 505.45 283.549 505.393 283.685C505.337 283.822 505.254 283.946 505.149 284.051C505.045 284.155 504.921 284.238 504.784 284.295C504.647 284.351 504.501 284.38 504.353 284.38ZM493.518 282.129H503.227V279.941C503.227 279.643 503.108 279.357 502.897 279.146C502.686 278.935 502.4 278.816 502.102 278.816H494.644C494.346 278.816 494.06 278.935 493.848 279.146C493.637 279.357 493.519 279.643 493.518 279.941V282.129ZM528.167 295.761H468.237C468.044 295.762 467.854 295.724 467.676 295.651C467.498 295.578 467.336 295.47 467.199 295.334C467.063 295.198 466.955 295.037 466.881 294.859C466.807 294.681 466.769 294.49 466.769 294.298C466.769 294.105 466.807 293.915 466.881 293.737C466.955 293.559 467.063 293.398 467.199 293.262C467.336 293.126 467.498 293.018 467.676 292.945C467.854 292.871 468.044 292.834 468.237 292.834H528.167C528.359 292.834 528.55 292.871 528.728 292.945C528.906 293.018 529.068 293.126 529.204 293.262C529.34 293.398 529.448 293.559 529.522 293.737C529.596 293.915 529.634 294.105 529.634 294.298C529.634 294.49 529.596 294.681 529.522 294.859C529.448 295.037 529.34 295.198 529.204 295.334C529.068 295.47 528.906 295.578 528.728 295.651C528.55 295.724 528.359 295.762 528.167 295.761V295.761Z" fill="#7CA1B1"/>
<path d="M518.737 320.318H478.045C477.508 320.318 476.992 320.105 476.612 319.725C476.232 319.345 476.019 318.829 476.019 318.292V288.705H520.763V318.292C520.763 318.829 520.55 319.345 520.17 319.725C519.79 320.105 519.274 320.318 518.737 320.318V320.318Z" fill="#FFBA55"/>
<path d="M478.045 282.354H518.737C519.274 282.354 519.79 282.568 520.17 282.948C520.55 283.328 520.763 283.843 520.763 284.38V288.705H476.019V284.381C476.019 284.114 476.071 283.851 476.173 283.605C476.275 283.359 476.424 283.136 476.612 282.948C476.8 282.759 477.024 282.61 477.27 282.508C477.515 282.406 477.779 282.354 478.045 282.354V282.354Z" fill="#E6952A"/>
<path d="M481.18 170.686H469.219C469.071 170.686 468.925 170.657 468.788 170.6C468.652 170.544 468.528 170.461 468.423 170.356C468.318 170.252 468.236 170.128 468.179 169.991C468.122 169.854 468.093 169.708 468.093 169.56V166.247C468.094 165.352 468.45 164.493 469.084 163.86C469.717 163.227 470.575 162.871 471.471 162.87H478.928C479.824 162.871 480.682 163.227 481.315 163.86C481.949 164.493 482.305 165.352 482.306 166.247V169.56C482.306 169.708 482.277 169.854 482.22 169.991C482.163 170.128 482.081 170.252 481.976 170.356C481.871 170.461 481.747 170.544 481.611 170.6C481.474 170.657 481.328 170.686 481.18 170.686ZM470.345 168.434H480.054V166.247C480.054 165.949 479.935 165.662 479.724 165.451C479.513 165.24 479.227 165.122 478.928 165.121H471.471C471.172 165.122 470.886 165.24 470.675 165.451C470.464 165.662 470.345 165.949 470.345 166.247V168.434ZM504.993 182.067H445.063C444.675 182.067 444.303 181.913 444.029 181.638C443.754 181.364 443.6 180.992 443.6 180.603C443.6 180.215 443.754 179.843 444.029 179.569C444.303 179.294 444.675 179.14 445.063 179.14H504.993C505.381 179.14 505.754 179.294 506.028 179.569C506.303 179.843 506.457 180.215 506.457 180.603C506.457 180.992 506.303 181.364 506.028 181.638C505.754 181.913 505.381 182.067 504.993 182.067Z" fill="#7CA1B1"/>
<path d="M495.563 206.623H454.872C454.334 206.623 453.819 206.41 453.439 206.03C453.059 205.65 452.845 205.134 452.845 204.597V175.01H497.59V204.597C497.59 205.134 497.376 205.65 496.996 206.03C496.616 206.41 496.101 206.623 495.563 206.623V206.623Z" fill="#FFBA55"/>
<path d="M454.872 168.66H495.563C496.101 168.66 496.616 168.873 496.996 169.253C497.376 169.633 497.59 170.149 497.59 170.686V175.011H452.845V170.686C452.845 170.149 453.059 169.633 453.439 169.253C453.819 168.873 454.334 168.66 454.872 168.66V168.66Z" fill="#E6952A"/>
<path d="M453.6 210.806H459.635V225.888C459.635 226.222 459.503 226.542 459.267 226.778C459.03 227.014 458.71 227.147 458.376 227.147H454.859C454.525 227.147 454.205 227.014 453.969 226.778C453.732 226.542 453.6 226.222 453.6 225.888V210.806V210.806ZM554.418 210.806H560.454V225.888C560.454 226.053 560.421 226.217 560.358 226.37C560.295 226.523 560.202 226.661 560.085 226.778C559.968 226.895 559.829 226.988 559.677 227.051C559.524 227.114 559.36 227.147 559.195 227.147H555.677C555.344 227.147 555.023 227.014 554.787 226.778C554.551 226.542 554.418 226.222 554.418 225.888V210.806V210.806Z" fill="#935B50"/>
<path d="M576.395 212.408H442.747C442.356 212.372 441.995 212.184 441.742 211.885C441.488 211.585 441.363 211.197 441.393 210.806C441.393 209.921 441.999 206.811 442.747 206.811H576.395C577.143 206.811 577.749 209.921 577.749 210.806C577.779 211.197 577.654 211.585 577.4 211.885C577.147 212.184 576.786 212.372 576.395 212.408V212.408Z" fill="#D6694B"/>
</svg>
