<svg width="426" height="426" viewBox="0 0 426 426" fill="none" xmlns="http://www.w3.org/2000/svg">
<g clip-path="url(#clip0_545_1879)">
<path d="M389.554 133.64C343.897 78.7733 73.482 44.2855 34.4875 133.64C-4.50704 222.994 43.5013 224.17 36.4471 363.296C29.3928 502.422 314.112 371.134 357.417 371.134C400.721 371.134 435.21 188.507 389.554 133.64Z" fill="#FFE3C2"/>
<path d="M49.6057 85.3252L152.644 408.109" stroke="white" stroke-width="3" stroke-miterlimit="10"/>
<path d="M34.4795 311.437L164.291 87.7676" stroke="white" stroke-width="3" stroke-miterlimit="10"/>
<path d="M244.627 85.3252L125.387 405.152" stroke="white" stroke-width="3" stroke-miterlimit="10"/>
<path d="M135.272 137.768L389.574 234.499" stroke="white" stroke-width="3" stroke-miterlimit="10"/>
<path d="M351.533 87.7676L391.521 399.424" stroke="white" stroke-width="3" stroke-miterlimit="10"/>
<path d="M300.546 88.415L273.655 408.11" stroke="white" stroke-width="3" stroke-miterlimit="10"/>
<path d="M34.4795 408.109L389.574 275.966" stroke="white" stroke-width="3" stroke-miterlimit="10"/>
<path d="M206.818 72.5212C206.818 72.5212 169.965 73.0088 154.036 113.962C138.108 154.915 145.177 168.566 137.133 179.292C129.088 190.018 138.352 225.12 132.014 241.209C125.676 257.298 131 271.5 131 271.5L164 259.5L296.213 266.395C296.213 266.395 298.751 246.124 290.951 232.331C283.15 218.539 289.732 194.69 286.563 183.578C283.394 172.466 276.081 163.447 272.912 132.488C269.743 101.53 253.833 71.5461 206.818 72.5212Z" fill="#38101B"/>
<path d="M172.996 178.078C172.996 178.078 176.264 216.744 169.992 221.132C163.721 225.52 163.398 249.742 163.398 249.742L238.314 260.895L255.773 248.152C255.773 248.152 259.544 222.595 256.242 216.744C252.94 210.894 255.214 191.709 255.214 191.709L256.242 169.139L172.996 178.078Z" fill="#350313"/>
<path d="M360.16 371.33L306.665 387.398L106.01 426C106.01 426 101.307 426.588 91.7057 426C82.104 425.412 82.8878 425.021 73.0902 422.473C63.2926 419.926 61.5291 416.791 61.5291 416.791C72.3369 366.345 83.1599 310.229 83.1599 310.229C87.2254 282.602 106.039 273.669 106.039 273.669L127.422 264.67L129.176 264.048L139.344 260.471L163.72 251.877L166.38 250.945C168.922 250.054 171.308 248.668 173.43 246.851C177.792 243.158 180.867 237.847 182.118 231.846H182.127C182.226 231.347 182.318 230.839 182.393 230.331C182.443 229.973 182.492 229.615 182.534 229.257C182.584 228.862 182.625 228.476 182.658 228.071V228.024C182.692 227.582 182.717 227.121 182.733 226.669C182.742 226.368 182.75 226.076 182.75 225.775V190.466H241.029V225.765C241.029 232.6 243.378 239.167 247.58 244.074C248.264 244.891 248.997 245.652 249.775 246.352C249.905 246.482 250.041 246.605 250.183 246.719C252.072 248.356 254.172 249.655 256.41 250.569C256.734 250.701 257.066 250.823 257.399 250.945L288.126 261.77L297.047 264.914L300.032 265.969L307.456 268.586L321.888 273.669C328.539 277.152 333.619 283.007 337.377 289.012C341.382 295.496 344.455 302.657 346.48 310.229H346.572C346.572 310.229 349.834 320.884 360.16 371.33Z" fill="#ED9A72"/>
<path d="M204.781 223.603C225.583 219.977 240.979 195.877 240.979 195.877C240.979 195.877 220.35 194.179 207.448 190.42H182.655V221.616C182.652 223.417 182.442 225.211 182.026 226.963L182.026 226.996C182.026 226.996 183.98 227.229 204.781 223.603Z" fill="#B86A55"/>
<path d="M259.547 133.19C258.318 132.95 257.051 132.979 255.833 133.276C251.499 103.355 233.517 80.916 211.982 80.916C190.387 80.916 172.362 103.478 168.092 133.524C166.638 133.02 165.077 132.905 163.564 133.19C156.895 134.515 153.086 143.619 155.055 153.522C156.955 163.079 163.541 169.865 169.992 169.139C176.325 192.592 192.248 209.127 208.322 213.309C209.528 213.535 210.758 213.608 211.982 213.526C212.955 213.606 213.934 213.56 214.895 213.389C232.876 208.577 248.202 192.562 254.167 169.193C260.269 169.121 266.259 162.561 268.056 153.522C270.025 143.618 266.216 134.515 259.547 133.19Z" fill="#E9966E"/>
<path d="M264.715 151.176C265.46 145.347 264.167 140.38 261.828 140.081C259.488 139.782 256.987 144.265 256.243 150.093C255.498 155.922 256.791 160.889 259.13 161.188C261.47 161.487 263.971 157.004 264.715 151.176Z" fill="#B86A55"/>
<path d="M164.747 161.187C167.087 160.889 168.38 155.921 167.635 150.093C166.89 144.264 164.39 139.782 162.05 140.081C159.71 140.38 158.417 145.347 159.162 151.175C159.907 157.004 162.407 161.486 164.747 161.187Z" fill="#B86A55"/>
<path d="M168.092 133.523C168.402 136.514 168.583 139.487 168.728 142.458L169.11 151.353C169.141 152.835 169.218 154.314 169.274 155.793L169.456 160.231C169.603 163.19 169.751 166.141 169.992 169.138C168.978 166.303 168.269 163.368 167.878 160.383C167.451 157.415 167.185 154.426 167.081 151.429C166.984 148.437 166.987 145.445 167.149 142.457C167.276 139.462 167.591 136.479 168.092 133.523V133.523ZM213.756 303.28C214.066 306.27 214.247 309.243 214.392 312.214L214.775 321.109C214.805 322.591 214.883 324.07 214.939 325.55L215.12 329.987C215.267 332.946 215.415 335.897 215.656 338.894C214.642 336.059 213.934 333.124 213.542 330.139C213.115 327.171 212.85 324.182 212.746 321.185C212.648 318.193 212.651 315.201 212.813 312.213C212.94 309.218 213.255 306.235 213.756 303.28V303.28ZM256.086 133.523C256.587 136.479 256.902 139.462 257.029 142.457C257.191 145.445 257.194 148.437 257.096 151.429C256.993 154.426 256.727 157.415 256.3 160.383C255.909 163.368 255.2 166.303 254.186 169.138C254.427 166.141 254.575 163.19 254.722 160.231L254.904 155.793C254.959 154.314 255.037 152.835 255.068 151.353L255.45 142.458C255.595 139.487 255.776 136.514 256.086 133.523Z" fill="#B86A55"/>
<path d="M212.141 95.7859C212.141 95.7859 191.181 121.474 169.526 125.816C169.526 125.816 168.103 132.994 168.065 134.273L154.536 123.575C154.536 123.575 167.616 77.9908 193.212 75.7968C218.808 73.6029 237.334 64.3397 251.229 91.398C265.124 118.456 258.542 133.524 258.542 133.524L256.153 135.634C256.153 135.634 224 115.044 212.141 95.7859Z" fill="#38101B"/>
<path d="M257.597 172.444C262.416 172.444 262.424 164.956 257.597 164.956C252.779 164.956 252.771 172.444 257.597 172.444ZM166.732 172.444C171.55 172.444 171.558 164.956 166.732 164.956C161.914 164.956 161.906 172.444 166.732 172.444Z" fill="#DB3A3A"/>
<path d="M178.48 236.384C178.48 236.384 209.043 279.775 248.87 236.384" stroke="#DB3A3A" stroke-width="3.253" stroke-miterlimit="10" stroke-linecap="round" stroke-dasharray="0.66 5.3"/>
<path d="M234.255 147.935C238.4 147.935 238.407 141.493 234.255 141.493C230.11 141.493 230.103 147.935 234.255 147.935ZM190.535 147.935C194.68 147.935 194.687 141.493 190.535 141.493C186.39 141.493 186.383 147.935 190.535 147.935Z" fill="#38101B"/>
<path d="M250.84 141.707C248.081 142.227 245.286 142.533 242.48 142.622C241.107 142.683 239.744 142.715 238.399 142.744C237.06 142.776 235.717 142.778 234.51 142.886C231.709 143.077 228.898 143.036 226.104 142.764C223.286 142.533 220.5 142.006 217.793 141.189C220.479 140.341 223.236 139.738 226.031 139.388C228.759 139.007 231.53 138.799 234.16 138.607C235.62 138.513 237.085 138.538 238.541 138.683C239.953 138.811 241.344 139.001 242.722 139.265C245.514 139.761 248.238 140.58 250.84 141.707V141.707ZM206.176 136.508C204.841 135.843 203.468 135.258 202.063 134.757C200.73 134.266 199.369 133.856 197.986 133.528C192.618 132.187 187.002 132.201 181.641 133.569C178.866 134.206 176.079 135.06 173.128 135.99C175.142 133.594 177.666 131.679 180.515 130.382C183.422 128.982 186.606 128.25 189.833 128.24C193.056 128.258 196.235 128.986 199.145 130.372C200.578 131.059 201.917 131.926 203.131 132.952C204.348 133.948 205.379 135.152 206.176 136.508V136.508ZM197.175 142.719C194.953 142.9 192.721 142.939 190.494 142.834C189.427 142.814 188.372 142.789 187.33 142.852C186.233 142.885 185.144 143.043 184.083 143.324C184.779 142.301 185.806 141.55 186.992 141.197C188.133 140.816 189.333 140.643 190.535 140.688C191.707 140.71 192.87 140.889 193.995 141.22C195.133 141.534 196.208 142.041 197.175 142.719V142.719Z" fill="#38101B"/>
<path d="M199.479 195.169C199.479 195.169 202.439 185.168 210.783 183.39C219.126 181.612 226.129 186.809 226.129 186.809L199.479 195.169Z" fill="#D7645D"/>
<path d="M201.316 166.06C204.242 169.025 208.111 170.878 212.257 171.299C212.128 171.321 211.999 171.331 211.87 171.342H212.643C212.514 171.331 212.385 171.321 212.257 171.299C216.334 170.892 220.148 169.095 223.058 166.21L201.316 166.06Z" fill="#B86A55"/>
<path d="M304.022 388.589C301.955 390.484 206.67 416.063 206.67 416.063C206.67 416.063 173.405 422.505 157.619 424.779C141.832 427.053 109.13 428 109.13 428L123.152 326.091H80C87 282 95 276.5 123 266.5L141.73 258.527L172 248L211.933 292.147L255 250L284.54 259.637L293.103 262.324C293.103 262.324 331.982 273.463 339.5 289C347.018 304.537 350.5 326.091 350.5 326.091H302.99C302.99 326.091 306.09 386.695 304.022 388.589Z" fill="#F12828" fill-opacity="0.89"/>
<path d="M213.392 132.072C214.171 132.072 214.919 131.762 215.47 131.211C216.022 130.66 216.331 129.912 216.331 129.133C216.331 128.353 216.022 127.605 215.47 127.054C214.919 126.503 214.171 126.193 213.392 126.193C212.612 126.193 211.865 126.503 211.314 127.054C210.762 127.605 210.453 128.353 210.453 129.133C210.453 129.912 210.762 130.66 211.314 131.211C211.865 131.762 212.612 132.072 213.392 132.072Z" fill="#E8233B"/>
<path d="M300.54 135.307C300.54 125.489 301.651 117.758 303.873 112.068C306.095 106.394 309.683 101.47 314.667 97.2964C319.636 93.1231 323.419 89.31 326.001 85.8573C328.583 82.3895 329.889 78.5765 329.889 74.4181C329.889 64.27 325.52 59.196 316.783 59.196C312.745 59.196 309.487 60.6821 307.01 63.6245C304.518 66.5819 303.212 70.5751 303.077 75.6191H269C269.12 62.1984 273.353 51.735 281.685 44.229C290.017 36.738 301.711 33 316.768 33C331.75 33 343.369 36.4678 351.596 43.3883C359.823 50.3088 363.951 60.1567 363.951 72.9169C363.951 78.5014 362.84 83.5755 360.618 88.1391C358.397 92.7028 354.839 97.3865 349.93 102.145L338.34 112.939C335.053 116.091 332.756 119.334 331.48 122.667C330.204 125.999 329.498 130.218 329.363 135.322H300.54V135.307ZM296.397 165.961C296.397 160.992 298.198 156.909 301.786 153.712C305.374 150.514 309.863 148.923 315.237 148.923C320.611 148.923 325.1 150.514 328.688 153.712C332.276 156.909 334.077 160.992 334.077 165.961C334.077 170.93 332.276 175.014 328.688 178.211C325.085 181.409 320.611 183 315.237 183C309.863 183 305.374 181.409 301.786 178.211C298.198 175.014 296.397 170.93 296.397 165.961Z" fill="#935B50"/>
</g>
<defs>
<clipPath id="clip0_545_1879">
<rect width="426" height="426" fill="white"/>
</clipPath>
</defs>
</svg>
